<svg width="18" height="18" fill="none" xmlns="http://www.w3.org/2000/svg"><path fill-rule="evenodd" clip-rule="evenodd" d="M5.362 0h7.276A5.368 5.368 0 0118 5.362v7.276A5.368 5.368 0 0112.638 18H5.362A5.368 5.368 0 010 12.638V5.362A5.368 5.368 0 015.362 0zm7.276 16.19a3.552 3.552 0 003.551-3.552V5.362a3.552 3.552 0 00-3.551-3.551H5.362a3.551 3.551 0 00-3.551 3.551v7.276a3.552 3.552 0 003.551 3.551h7.276z" fill="#fff"/><path fill-rule="evenodd" clip-rule="evenodd" d="M4.5 9c0-2.481 2.019-4.5 4.5-4.5s4.5 2.019 4.5 4.5-2.019 4.5-4.5 4.5A4.505 4.505 0 014.5 9zm1.75 0a2.75 2.75 0 105.5 0 2.75 2.75 0 00-5.5 0z" fill="#fff"/><circle cx="13.95" cy="4.05" r="1.35" fill="#fff"/></svg>