<svg width="852" height="157" fill="none" xmlns="http://www.w3.org/2000/svg"><g filter="url(#filter0_d)"><path fill-rule="evenodd" clip-rule="evenodd" d="M46.923 134c17.281 0 26.562-10.222 26.562-28.431 0-13.895-4.64-22.84-19.362-35.777-11.52-10.063-15.201-15.973-15.201-24.118 0-7.667 3.2-10.702 8.8-10.702 5.601 0 8.801 3.035 8.801 11.021v5.75h16.642v-4.632C73.165 29.222 64.685 19 47.563 19S21.32 29.222 21.32 46.792c0 12.777 4.8 21.882 19.522 34.82 11.521 10.062 15.041 15.971 15.041 25.235 0 8.306-3.52 11.181-9.12 11.181-5.601 0-9.121-2.875-9.121-10.861V99.5H21v6.389C21 123.778 29.64 134 46.923 134zm68.006-1.597V36.569h18.402V20.597H78.926V36.57h18.401v95.834h17.602zm31.203 0l3.201-21.882h20.002v-.32l3.2 22.202h17.602L171.895 20.597h-23.842l-18.242 111.806h16.321zm21.122-37.056h-15.841l7.681-55.264h.32l7.84 55.264zm57.766 37.056V84.806l21.282-64.209h-17.121l-12.002 41.049h-.32l-12.001-41.049h-18.722l21.282 64.209v47.597h17.602zM304.708 134c16.962 0 25.923-10.222 25.923-27.472V90.715h-16.642v17.091c0 7.347-3.52 10.222-8.801 10.222-5.28 0-8.801-2.875-8.801-10.222V45.354c0-7.347 3.521-10.382 8.801-10.382 5.281 0 8.801 3.035 8.801 10.382v12.938h16.642v-11.82c0-17.25-8.961-27.472-25.923-27.472-16.962 0-25.923 10.222-25.923 27.472v60.056c0 17.25 8.961 27.472 25.923 27.472zm62.246 0c17.282 0 26.723-10.222 26.723-28.111V47.111c0-17.889-9.441-28.111-26.723-28.111-17.282 0-26.722 10.222-26.722 28.111v58.778c0 17.889 9.44 28.111 26.722 28.111zm0-15.972c-5.6 0-9.121-3.035-9.121-11.021V45.993c0-7.986 3.521-11.02 9.121-11.02 5.601 0 9.121 3.034 9.121 11.02v61.014c0 7.986-3.52 11.021-9.121 11.021zm54.246 14.375V50.785h.32l21.122 81.618h18.081V20.597h-15.681v66.924h-.32L427.6 20.597h-22.082v111.806H421.2zm68.326 0V50.785h.32l21.122 81.618h18.082V20.597h-15.681v66.924h-.32l-17.122-66.924h-22.082v111.806h15.681zm100.65 0v-15.972h-30.403v-34.34h24.163V66.117h-24.163V36.57h30.403V20.597h-48.005v111.806h48.005zM625.06 134c16.961 0 25.922-10.222 25.922-27.472V90.715h-16.641v17.091c0 7.347-3.521 10.222-8.801 10.222-5.281 0-8.801-2.875-8.801-10.222V45.354c0-7.347 3.52-10.382 8.801-10.382 5.28 0 8.801 3.035 8.801 10.382v12.938h16.641v-11.82c0-17.25-8.961-27.472-25.922-27.472-16.962 0-25.923 10.222-25.923 27.472v60.056c0 17.25 8.961 27.472 25.923 27.472zm67.846-1.597V36.569h18.402V20.597h-54.405V36.57h18.402v95.834h17.601zm74.888 0v-15.972h-30.403v-34.34h24.162V66.117h-24.162V36.57h30.403V20.597h-48.005v111.806h48.005zm36.963 0c17.602 0 26.243-9.743 26.243-27.632V48.229c0-17.889-8.641-27.632-26.243-27.632h-26.882v111.806h26.882zm-.32-15.972h-8.96V36.569h8.96c5.601 0 8.961 2.875 8.961 10.862v58.138c0 7.987-3.36 10.862-8.961 10.862z" fill="#505050" fill-opacity=".376"/></g><defs><filter id="filter0_d" x="0" y="0" width="852" height="157" filterUnits="userSpaceOnUse" color-interpolation-filters="sRGB"><feFlood flood-opacity="0" result="BackgroundImageFix"/><feColorMatrix in="SourceAlpha" values="0 0 0 0 0 0 0 0 0 0 0 0 0 0 0 0 0 0 127 0" result="hardAlpha"/><feOffset dy="2"/><feGaussianBlur stdDeviation="10.5"/><feColorMatrix values="0 0 0 0 0 0 0 0 0 0 0 0 0 0 0 0 0 0 0.663216 0"/><feBlend in2="BackgroundImageFix" result="effect1_dropShadow"/><feBlend in="SourceGraphic" in2="effect1_dropShadow" result="shape"/></filter></defs></svg>