<svg width="18" height="15" fill="none" xmlns="http://www.w3.org/2000/svg"><path fill-rule="evenodd" clip-rule="evenodd" d="M15.88 2.375A3.78 3.78 0 0017.503.281a7.234 7.234 0 01-2.346.918A3.649 3.649 0 0012.461 0C10.421 0 8.77 1.695 8.77 3.785c0 .297.03.586.096.863C5.794 4.492 3.07 2.984 1.25.691a3.864 3.864 0 00-.5 1.903c0 1.312.656 2.472 1.648 3.152A3.543 3.543 0 01.72 5.273v.047c0 1.836 1.274 3.364 2.964 3.711a3.635 3.635 0 01-.973.133 3.39 3.39 0 01-.694-.07c.469 1.504 1.835 2.597 3.452 2.629A7.295 7.295 0 010 13.289 10.148 10.148 0 005.653 15c6.8 0 10.516-5.77 10.516-10.773 0-.165-.004-.329-.011-.489A7.622 7.622 0 0018 1.778a7.33 7.33 0 01-2.12.597z" fill="#fff"/></svg>