<svg version="1.0" xmlns="http://www.w3.org/2000/svg" width="2520" height="906.667" viewBox="0 0 1890 680"><g fill="#fff"><path d="M238.3 1.9c-.7 1.2-1.3 2.9-1.3 3.8-.1 1.7-.1 1.7-1.4 0-1.5-2-3.2-2.2-3.9-.5-.3.7-.6.1-.6-1.5-.1-1.5-.4-2.7-.8-2.7-1.5.1-5.3 4.8-5.3 6.6 0 1.3-.6.8-1.6-1.4-1.9-3.7-3.4-4.1-4.1-1.1l-.6 2.2L217 5l-1.8-2.3-.6 2.1c-.4 1.2-1.2 2.2-1.7 2.2s-.9 1.1-.9 2.4c0 1.3-.6 2.8-1.3 3.4-.7.6-1.4 3-1.5 5.2-.2 2.3-.8 5.3-1.5 6.8-1.4 3.2-2.3 79.9-1.2 107 .6 14.2 1 17.2 2.1 16.8.8-.3 1.4-.1 1.4.4 0 .6-.7 1-1.6 1-1.5 0-1.6 1.1-.8 10.2.5 5.7.9 25.7.9 44.5v34.2h-7c-3.8 0-10.6 0-15-.1-15-.3-51.3.2-57.6.8-10.3.9-24.2.4-25.5-.9-.4-.3-1.5-.2-2.5.4-1.1.6-1.9.6-1.9 0 0-1.5-3.3-2.2-4.2-.9-.6 1-1 1-1.8-.2-.6-.9-1.3-1.1-1.8-.5-.7 1-4.8 3.5-5.7 3.5-.3 0-.5-.7-.5-1.5 0-1.9-1.9-1.9-6 .1-2.7 1.4-3.4 1.4-4.1.3-.6-1-2.3.2-6.9 5-3.3 3.5-6 6.6-6 7 0 .3-4.5 5.1-10.1 10.6l-10.1 10 .7-10c.3-5.5.8-13.2 1-17 .2-3.9.5-27 .7-51.3l.3-44.4-2.5-1.9c-1.4-1.1-3.6-2.8-4.8-3.9-2.8-2.4-7-2.6-9.8-.5-2.8 2.1-3.7 1.8-3-1 .7-2.6-.3-3.2-2.1-1.4-.8.8-1.3.5-1.8-1-.7-2.4-4.5-2.9-4.5-.5 0 .8-.5 1.2-1 .9-1.5-.9-5 .4-5 1.9 0 .9-.9 1.2-2.5.8-1.6-.3-2.6.1-2.9.9-.2.8-.9 3.2-1.6 5.4-1.4 4.9-1.7 16.3-2.1 98-.3 58.7.4 102.5 1.7 104.6.3.5.2.9-.3.9-1.3 0-.7 16.4.7 19 2.1 4 5.5 6.7 8.3 6.7 1.5 0 3-.3 3.3-.8.2-.4 1.6-.4 3 .1 3.3 1.3 3.4 1.3 3.4-.4 0-.7 1.3-1.9 2.9-2.6 2.3-.9 3.3-.9 5 .2 1.7 1 2.3 1 2.9.1.5-.8 1.3-.9 2.2-.3 2.3 1.5 3.3 1.2 2.6-.7-.4-1-.4-1.5-.1-1.1.4.4 1.7-.3 3-1.4 2.2-1.9 2.9-6.4 2.5-15.8-.1-.8-.2-7.3-.4-14.4-.3-14.5-1.3-11.9 8.8-23.4 2.5-2.9 4.6-5.9 4.6-6.6 0-.7 1.1-2.6 2.4-4.1 1.4-1.6 2.3-3.2 2-3.6-.2-.4.6-1.1 1.8-1.4 1.3-.4 5.5-3.9 9.4-7.9C82.9 282.4 85.9 280 89 280c1.6 0 3.1-.3 3.4-.8.5-.8 9.4-.8 25.8.3 6.2.3 20.5.2 31.8-.4 35.9-1.9 59-2.2 59.1-.8.1.7.1 10.1 0 20.9-.1 10.9.2 19.8.7 19.8 1.1 0 1.6 12.6.5 14.3-1.2 1.8-1.4 5.7-1.9 31.5-.4 17.7-.2 23.7.7 24.9 1 1.1 1 1.6.1 2.2-1.2.7-.9 18 .4 27 .4 3.1.3 4.2-.5 3.7-.6-.4-1.1-.2-1.1.3 0 .6.5 1.1 1 1.1.6 0 1 .7 1 1.6 0 .8-.4 1.2-1 .9-.5-.3-1-.1-1 .4 0 .6.6 1.1 1.3 1.1.8 0 .7.4-.3 1.1-1.1.8-1.2 1.2-.2 1.6.6.2 1.2 1.6 1.2 2.9 0 1.3-.6 2.4-1.2 2.4-1 0-.9.3.1.9 1.1.7 1.1 1 0 1.5s-1.1.7-.1 1.2c1.4.7 1.7 3.4.3 3.4-1.1 0-.8 14 .3 15.8.4.7.2 1.2-.4 1.2-.6 0-.8.5-.5 1.1.4.6.7 5.7.6 11.5-.1 6.6.2 10.4.9 10.4.5 0 1 1.5 1 3.2 0 7.8.9 20.7 1.8 25.3.5 2.7.8 5.3.6 5.7-.3.4.4 1.3 1.5 2 1.4.8 1.7 1.6 1 2.4-.7.8-.2 1.1 1.6 1.1 1.4 0 2.5-.3 2.5-.8s.9-.4 2 .3 2 1.8 2 2.5.7 1.3 1.5 1.3 1.5.4 1.5 1c0 .5.7 1 1.5 1s1.5-.4 1.5-.9.8-.7 1.9-.4c1 .3 2.2 0 2.5-.5.3-.6 1.6-.8 2.8-.4 1.7.4 2 .2 1.5-1.1-.9-2.3 2.3-3.8 6.2-3.1 3.2.7 6.8-1.7 5.6-3.6-.3-.5.1-1 1-1s1.3-.5 1-1c-.3-.6-.2-1 .3-1s.9-.7.9-1.5-.6-1.5-1.4-1.5c-1.6 0-1.7-3.2-.1-4.8.9-.9 1-1.5.2-2s-.9-2.8-.2-7.7c1.2-9.6 1.7-19.5.9-19.5-.8 0-.8-18.4.1-19 .4-.3 0-2-.9-3.9-1-2-1.3-3.5-.7-3.9 1.3-.9 1.8-18.2.7-18.2-.5 0-.5-3.5-.1-7.8 1-9.1.7-109.2-.3-114-.5-2.5-.4-3.2.8-3.2 1.2 0 1.3-.3.4-1.3-.6-.8-.8-1.7-.4-2 .3-.4.2-.7-.4-.7-.8 0-.8-1 0-3.6.7-2.5.8-3.8 0-4.2-.6-.4-.7-1.6-.3-2.7.4-1.1.4-3.4 0-5.2-.5-2.1-.4-3.4.4-3.6.8-.3.8-.8 0-1.7-.7-.6-1-2-.7-3 .4-1.3 2-1.9 7.1-2.5 9.8-1.1 37.1-1.4 42.3-.5 2.6.5 4.8.5 5.4-.1 1.2-1.2 4.5-1.2 4.5.1 0 .5.5 1 1 1 .6 0 1-.7 1-1.5 0-1.4 1.1-1.9 3.7-1.6.7.1 1.5-1 1.9-2.4.3-1.4 1-2.5 1.5-2.5s.7-1.8.4-4c-.4-3.1-.1-4 1-4 .8 0 1.5-.5 1.5-1 0-.6-.4-1-1-1-.5 0-1-.4-1-1 0-.5.7-.7 1.5-.4.8.4 1.5.1 1.5-.5s.6-1.1 1.4-1.1c1.2 0 1.9-1.7 3.2-8.3.6-2.7-1.3-4.1-9.1-6.7-7.7-2.6-20.7-3.2-25.7-1.2-1.5.6-3 .8-3.2.3-.9-1.3-14.9-1.2-15.8.2-.6.9-.8.8-.8-.2 0-.9-.4-1-1.2-.4-1.5 1-2.4 1-5.3-.2-1.1-.5-3.8-.8-6-.8-8.9.3-8.2 2.1-7.8-21.9.2-11.7.3-31.7.2-44.3-.1-26.3-.1-45.4 0-77.8.1-13.4-.3-23.5-.9-24.6-.5-1-.9-9.2-.9-18.2.1-50.4.1-49.9-2.1-49.9-1.3 0-2 .7-2 2 0 2.5-2.9 2.7-3.2.2 0-.9-.2-2.2-.2-2.9-.2-2.2-1.6-2.7-1.6-.5 0 1.1-.3 2.8-.7 3.8-.5 1.4-.9.9-1.7-2-1-3.5-1.2-3.6-2.3-1.7zm1426.6 16.3c-.1.7-.1 1.6 0 2 0 .4-.6.5-1.4.2-.9-.4-1.5 0-1.5.7 0 1.1-.3 1.1-1-.1-.9-1.3-1.1-1.3-1.9-.1-.7 1.1-2.2 1.2-6.2.8-4.5-.6-5.5-.4-7.1 1.5-1 1.2-1.6 2.8-1.4 3.5.3.7 0 1.2-.6 1-.6-.1-1.2.7-1.3 1.8-.1 1.1-.4 2.4-.5 3-.2.5.3 3.2 1.1 6 1.1 3.6 1.3 7.8.9 15.3-.3 5.6-.1 10.2.4 10.2s.3.6-.3 1.4c-.7.9-.8 1.7-.2 2 1.1.7 1 10.5-.2 12.3-.4.6-.3 1.4.3 1.8.6.4.7 1.1.4 1.7-.7 1.1-.7 7.5-.1 40.1.2 9.2 0 17-.5 17.3-.5.4-.6 1.3-.2 2.3 1.5 3.6 2.3 39.9.9 42.4-.7 1.3-.6 2 .5 2.7.8.5 1 1 .4 1s-1.1 1.1-1.1 2.5.3 2.5.8 2.5.7 8.8.6 19.5c-.2 22.5 1.3 20.3-13.7 20.3-5.2 0-9.9.1-10.5.3-.5.2-2 0-3.2-.5-1.2-.4-3.1-.2-4.2.3-1.4.8-2.1.8-2.4-.2-.4-.8-.8-.9-1.4-.1-.4.6-2.4 1.1-4.3 1.1s-3.8-.5-4.2-1.1c-.6-.8-1.1-.7-1.7.3-.6 1-1.8 1.2-3.7.6-1.6-.3-6.7-.8-11.4-.9-7.2-.1-8.7.1-9.8 1.6-.7 1-2 1.8-2.7 1.8-1.1 0-1.3 1-1.1 3.7.5 5.6 1.4 7.2 3.7 6.6 1.3-.4 1.9 0 1.9 1.1 0 .9-.8 1.6-1.9 1.6-1.1 0-2.3.4-2.6 1-.3.5 0 1 .8 1 2 0 2.7 3.3 1 4.8-.7.7-1.3 1.7-1.3 2.2 0 .9 3.1 1.5 5.4 1.1.4-.1 1.4.3 2 .9.7.5 1.6.7 1.9.3.4-.3.7-.1.7.6 0 .9 1 1.2 3 .9 2-.3 3 0 3 .9 0 .7-1 1.3-2.2 1.3-3.4 0-6.8 1.1-6.8 2.2 0 .5.6.8 1.3.7 4.4-.5 8.7.2 8.7 1.6 0 .8-.4 1.5-.8 1.5-.5 0-.9.7-.9 1.5s.5 1.1 1 .8c.5-.3 1.3.1 1.8.8.5.8 2.5 1.3 5.1 1.3 11-.1 18.4-.7 19.6-1.6.8-.7 1.2-.7 1.2 0 0 .6 4.2 1 10.5 1.1 5.8.1 11.2.4 12 .7.8.4 1.5.1 1.5-.5 0-1.7 5-1.3 5.6.4.9 2.2 3.5 1.9 2.8-.3-.4-1.3-.2-1.2.7.3 2.7 4.2 3.6 4.5 4.8 1.8 1.1-2.4 1.3-2.5 3.1-.8 1 .9 2.4 1.4 2.9 1 .6-.3 1.1.1 1.1.9 0 .9-.5 1.6-1.2 1.6-.9 0-.9.3-.1 1.1.9.9 1.6.8 2.7-.3.8-.9 1.2-1.8.9-2.2-.8-.8-.4-.8 3.5.3 3 .9 3.1.8 2.2-1-.8-1.5-.7-1.9.5-1.9.8 0 1.5.7 1.5 1.6 0 1.1.5 1.4 1.6 1 .9-.3 2-.6 2.6-.6.6 0 .8-.7.5-1.5-.4-.8-.1-1.7.5-2.1.6-.4.8-.3.5.3-1.5 2.4 6.7 3 9 .7 1-1 2.5-1.3 4-.9 2.8.7 5.8-1.6 4.1-3.3-.6-.6-.6-1.2.1-1.6.6-.4 1.1-1.4 1.1-2.2 0-.8-.4-1.3-.9-.9-.5.3-1.2.1-1.5-.4-.4-.5.2-1.1 1.1-1.3 1.6-.3 1.5-.6-.7-2.8-2-2-2.4-3.4-2.4-8.8-.1-3.5.3-6.6.7-6.9.5-.3.6-1.1.3-1.9-.3-.7-.1-1.6.4-1.9.6-.4 1-.1 1 .5 0 2.7 2.3.1 2.5-2.7.2-2.8-.1-3.2-2.3-3.5-1.8-.2-2.8-1.1-3.3-3.1-.4-1.5-.4-2.7.1-2.7.4 0 1-.9 1.3-2 .3-1.1.1-2-.4-2-.4 0-.6-.7-.3-1.5.4-.8.1-1.5-.5-1.5s-1.1-.5-1.1-1.1c0-.5.5-.7 1-.4 1.1.7 1.4-.8.3-1.9-1.2-1.2-1.4-4.9-.2-5.7.8-.5.8-1.2-.1-2.8-.9-1.7-.9-2.6 0-3.6.7-.8.9-1.9.5-2.5-.3-.5.1-2 .9-3.2 1.4-1.9 1.6-1.9 2.2-.5.3.9 1.5 1.7 2.6 1.7s2.2.8 2.5 2c.3 1.1.9 2 1.4 2 .5 0 .9.7.9 1.6 0 1 .6 1.4 1.5 1 .9-.3 1.5 0 1.5.9 0 .8.7 1.5 1.5 1.5s1.5.4 1.5.9c0 1.1 18.1 19.1 19.2 19.1.5 0 .8.4.8 1 0 .5 1.7 2.5 3.8 4.5 2 1.9 3.1 3.5 2.5 3.5-.7 0-1.3.7-1.3 1.6 0 1.1.6 1.4 2 .9 1.1-.4 2-.2 2 .4 0 .6-.3 1-.7 1-2.3-.4-2.4.3-.3 2.1 1.3 1.1 2.9 2 3.7 2 .7 0 1.3.4 1.3 1 0 .5-.4 1-1 1-.5 0-1 .4-1 1 0 .5.6 1 1.3 1 .6 0 2.1 1.4 3.2 3 1.1 1.7 2.6 2.8 3.4 2.5.8-.3 1.1 0 .8.9-.5 1.1 0 1.3 2.4.6 2.6-.8 2.9-.7 2.4.9-.4 1.4.1 2 2.2 2.6 2.8.7 7.3 4.2 7.3 5.7 0 1.2 3.7 4.7 4.4 4.1.3-.3 1.2.2 2.1 1.1.9.9 1.3 1.6.8 1.6-.4 0 .4.8 1.8 1.8 1.5 1 2.4 2.3 2.1 3.2-.3.8-.1 1.2.3.8.4-.4 1.6-.3 2.7.3 1.8.9 1.8 1.2.4 2.2-1.2.9-1.3 1.6-.5 2.7s1.2 1.2 1.6.2c.7-1.8 2.3-1.4 1.6.5-.4 1.1-.3 1.4.5.9.7-.4 1.2-.2 1.2.5 0 .6.8.9 2 .6 1.3-.3 2 0 2 .9 0 .8.5 1.4 1 1.4.6 0 2 .9 3.2 2 1.2 1.1 1.8 2 1.4 2-.4 0 .7 1.3 2.3 2.8 2.5 2.3 2.9 3 1.9 4.1-1.1 1-.9 1.2.7.9 1.7-.2 2 .2 1.9 2.9-.1 1.8.2 3.3.7 3.3.6 0 2.1 1.1 3.4 2.4 1.4 1.4 3.3 3 4.2 3.5 1.5.9 1.5 1.2.4 2-.8.5-.9 1.1-.3 1.5.6.3 1.2 0 1.4-.6.5-1.5 7.8 3.6 7.8 5.4 0 .5-.9 0-1.9-1.3-1.1-1.4-2.3-2-2.8-1.5-.4.5-.2 1.1.5 1.3.6.3 1.2.9 1.2 1.5 0 1.1 1.2 2.4 5.2 5.5 3.8 2.8 14.3 16.4 12.2 15.6-1.2-.4-1.5-.3-1 .5.4.7 1.3 1.2 2 1.2.8 0 2 .8 2.7 1.7 1 1.1 1 1.4.2.9-1.7-.9-1.6.4.1 2.6 1.7 2.3 3 2.3 2.1 0-.3-.9.9-.2 2.9 1.7 1.9 1.9 3.3 3.8 3 4.2-.7 1.2 4.4 6.2 5.5 5.4.6-.3 1.1.1 1.1.9 0 .9.7 1.6 1.5 1.6s1.5.4 1.5.9.9 1.3 2 1.6c1.1.3 2.7 1.3 3.5 2.2 1.3 1.2 1.8 1.3 3.1.3 1.2-1.1 1.3-1 .9.2-.6 1.6 2 3.2 3.6 2.2.5-.3.9 0 .9.5 0 .6.4 1.1 1 1.1.5 0 2.4 1.6 4.3 3.5s3.9 3.5 4.4 3.5c.6 0 1.6.7 2.3 1.5 1 1.2 1.6 1.3 2.6.4 1.1-.9 1.8-.9 2.8 0 1.1.9 1.5.8 2-.5.3-.9.4-1.9.2-2.3-1-1.6-1.7-10.1-.9-10.1.5 0 .7-3 .5-6.6-.3-3.6.1-9.1.7-12.2.6-3.1 1.3-10.2 1.5-15.8.1-5.5.5-10.5.9-11.1.4-.6.3-1.3-.3-1.5-.6-.2-.6-1.6.1-4.2.6-2.2.9-5.6.7-7.8-.2-2.1.1-3.8.5-3.8.5 0 .5-.6 0-1.3-.6-.6-1.1-3.4-1.2-6.2-.1-2.7-.7-5.5-1.2-6.1-.7-.8-.6-1.3.1-1.6 1.3-.4 1.5-7.5.6-19.8-.3-5.1-.1-7.7.7-8.2.8-.5.6-1.3-.7-2.7-1.1-1.2-1.4-2.1-.9-2.1.6 0 1-1.9 1-4.3 0-2.3.3-6.9.7-10.2 1.1-8.8 1.4-45.5.4-45.5-.5 0-.6-.5-.3-1.1.6-.9 1.8-13.1 1.7-16.9-.6-15.6-.6-23.4-.2-27.7.5-4.1.2-5.7-1.2-7.5-1-1.3-1.8-3.1-1.8-4.1 0-2.1-1.8-2.3-2.6-.2-.4.8-1.1 1.2-1.7.8-.6-.4-.8 0-.4 1 .3 1 .2 1.7-.3 1.7s-1.2-.9-1.5-2c-.6-2-2.5-2.8-2.5-1.2 0 .5-1.5.8-3.2.6-3.8-.3-10.1.6-9.4 1.3.6.6-4.4 5.3-5.6 5.3-.5 0-.6-.5-.2-1.2.5-.8.2-.9-.9-.5-.9.3-1.9.2-2.2-.3-.4-.6-1.1-1-1.6-1-.6 0-.7.4-.4 1 .3.5-.1 1-.9 1-.9 0-1.6.5-1.6 1.1 0 .6-.7.9-1.5.5-2.9-1.1-4.6.5-4 3.4.3 1.6.1 3.1-.4 3.5-1.5.8-1.4 4.5 0 4.5.8 0 .8.4 0 1.3-1.2 1.5-1.1 10.7.1 10.7.4 0 .6 1.8.5 4-.1 2.5-.6 4-1.4 4-.7 0-1.3.7-1.3 1.5s.6 1.5 1.3 1.5c1 0 1.3 1.4 1.1 5-.2 3.3.2 5 .9 5 .9 0 .9.2 0 .8-1.2.8-1.3 7.5-.1 8.8.7.6.3 7.9-.8 16.3-.4 3-.2 4.6.7 5.2 1 .6 1 1.1.1 2.1-.6.8-1.1 2.8-1.1 4.4.2 3.5-.9 41.7-1.2 42.4-.1.3-.1.9 0 1.4.2.8.3 17.1.2 20.4-.1 1.5-2.6 1.1-2.6-.4 0-1-1.1-2.5-6.5-8.2-1.9-2-3.9-3.7-4.4-3.7-.5 0-1.4-.8-2-1.8-.6-1-5-5.8-9.8-10.7-4.9-4.9-8.8-9.4-8.8-10 0-.5-.5-1-1.1-1-1.4 0-4-2.6-3.3-3.3.3-.3-.4-.8-1.5-1.2-1.2-.3-2.1-1.2-2.1-1.9s-1.6-2.7-3.5-4.6c-1.9-1.9-3.5-3.1-3.5-2.7 0 .4-2.4-1.7-5.3-4.5-7.1-7-15.3-14-18.2-15.5-2.7-1.5-3.9-4-2.2-4.6 1.6-.6.7-1.4-1.8-1.9-1.1-.1-2.2-1.2-2.5-2.2-.3-1.1-1.4-2.4-2.5-3-3.1-1.8-4.2-3-3.7-4.4.2-.6-.3-1.2-1-1.2-.8 0-2.7-2.3-4.3-5.1-1.7-2.9-7.7-9.4-13.7-15.1-6-5.5-10.8-10.6-10.8-11.5 0-.8-.4-1.2-.9-.9-.4.3-3.3-2-6.4-5.2-6.7-6.8-13.1-12.2-14.7-12.2-.6 0-.8-.5-.5-1 .3-.6 0-1-.7-1-1.4 0-8.5-7.7-9.3-10.1-.3-.9-1.7-2.1-3.1-2.8-1.5-.6-2.4-1.5-2-1.8.3-.3-.2-1.2-1.2-2-1.6-1.2-1.6-1.3.1-.7 1.2.5 1.7.1 1.7-1.4 0-1.1-.4-2.2-.9-2.4-.4-.2-.4-3.9.2-8.3.6-4.9.6-8 0-8.2-.5-.2-.8-3.2-.7-6.8.2-3.6-.1-6.7-.6-7-.5-.3-.5-1.7 0-3.1.6-1.4.8-2.9.6-3.3-.3-.4-.6-6.8-.7-14.2-.1-7.4-.7-16.6-1.3-20.4-.7-3.9-1.1-14-1-22.5.2-17-.1-19-2.2-19-.8 0-1.4-.7-1.4-1.5s-.8-1.6-1.7-1.6c-7.3-.6-9.1-.7-11.4-.8-1.8-.1-2.8-.8-3.2-2.1-.6-2.2-2.6-2.7-2.8-.8zM941 39.4c0 .8.6 1.7 1.3 1.9.6.3-.1.6-1.6.6-1.6.1-2.6.5-2.2 1.1.3.5-.2 1-1.2 1s-2.8 1.5-3.9 3.3c-2.1 3.1-5.8 4.8-4.7 2.2.6-1.7-2.9-2.9-3.9-1.3-.4.7-.6 2.1-.4 3 .2 1.1-.2 1.8-1.1 1.8-.8 0-1.2.4-.9.9.3.5-.2.8-1.2.7-1.2-.1-1.7.6-1.6 2.4.1 1.4-.3 2.8-.8 3.1-.5.3-1 1.4-1.2 2.3-.1 1-.7 2.1-1.3 2.4-.5.4-1.3 2.1-1.6 3.8-.7 3.8 1.6 8 7.8 13.8 18.1 17.1 19.8 18.6 22.1 18.6 1.3 0 2.4-.5 2.4-1.1 0-.6.8-.8 1.8-.5 2.1.6 6.6-2.9 5.6-4.5-.4-.8-.3-.9.4-.5.6.4 1.9-.3 2.9-1.5s4.6-5.2 8.1-8.7c3.4-3.6 6.2-6.9 6.2-7.4 0-.4.4-.8.9-.8s.7-.9.4-2c-.3-1.2.1-2.2 1.1-2.6 2.4-.9 2-2.3-.9-3-1.4-.3-2.2-1-1.9-1.6.3-.5.1-1.4-.5-2.1-.5-.7-1.2-2.4-1.4-3.8-.5-2.5-9-11.9-10.8-11.9-.5 0-.9-.4-.9-.8 0-1.1-6-4.5-6.7-3.8-.3.3-2.4-1-4.6-2.9-4.4-3.8-5.7-4.3-5.7-2.1zm-3.5 93.2c-1.4 1.1-1.6 1.8-.7 2.1.6.3.9.9.6 1.5-.4.5-1.6 0-3-1.3-2-1.9-2.7-2-5.2-1-2.7 1.1-2.8 1.5-2.6 6.9.2 3.1.2 16.9.2 30.7-.1 13.7-.1 49.1 0 78.5s.1 61.8.1 72v20c.2 15.9-.1 26.4-.9 34.5-.7 6.6-.7 10.2 0 10.9.5.5 1 1.8 1 2.8 0 1 .5 1.8 1 1.8.6 0 1 .6 1 1.3 0 1.6 3.2 4.4 7.6 6.4 1.9.9 3.9 2.9 4.6 4.4 1.1 2.4 1.7 2.7 6 2.6 4.6 0 6.6-1.5 5.2-3.8-.3-.5.5-1.3 1.8-1.9 3.6-1.5 6.1-3.8 5.3-4.9-.3-.6-.1-1.1.4-1.1.6 0 1.1-.9 1.1-2s.6-2 1.3-2c.6 0 1.9-1.1 2.9-2.4 2.1-2.9 3.3-20.2 1.7-24.3-1.3-3.3-1.9-9.3-.9-9.3.8 0 1.9-5.8 2.5-13.3.3-2.6.1-4.7-.4-4.7-.4 0-.7-2.6-.6-5.8.2-3.1.4-14.3.5-24.9.1-10.5.5-19.3.8-19.5.4-.2.4-6.6.1-14.3-1.2-25.4-1.1-76.3.2-77.1.7-.4.7-.9.1-1.3-.9-.6-2.6-33.7-2.3-45.9.1-5.5-1.3-9.7-2.9-8.7-.5.3-1.9-.4-3.1-1.6-2.3-2.3-9.8-3.3-13.1-1.7-1.2.5-2.2 0-4-2.2-2.6-3.4-3.5-3.6-6.3-1.4zm-260.2 1.9c-.9.9-2.8 1.3-6 1-2.9-.2-5.1.1-5.5.8-1.1 1.7-1 2.9.2 2.2.6-.3.7.1.4.9-.3.9-1.3 1.6-2.1 1.6s-1.1-.5-.7-1.3c.5-.9.4-.9-.6 0-1.7 1.6-2.2 4.3-.8 4.3.6 0 .6.6-.2 1.4-.8 1-1.1 5.8-1 14.8.2 21 .1 33.7-.3 42.3-.7 12.8 1.7 25.7 5 26.9.8.3 1.2 1 .8 1.6-.5.8 5 .8 8-.1.6-.1 3.2.1 5.9.6 3.4.5 5.5.4 6.9-.4 1.3-.9 1.7-.9 1.2-.1-.7 1.1 3 5 4.6 5 .5 0 1.1-1.2 1.5-2.8.9-4.1 1.2-4.9 1.3-3 .1 1 .6 1.8 1.1 1.8.6 0 1-4.2 1-10.5 0-7.1.4-10.5 1.1-10.5.6 0 .9-.9.6-2-.3-1.1-.1-1.8.4-1.4 1.1.7 1-3.8-.4-9.7-.5-2.6-.6-5.5-.2-6.5.5-1.1.7-2.3.6-2.8-.1-.4.4-1.5 1.1-2.3.7-.9.8-1.7.2-2.1-.8-.6-1-2.7-.4-4.2.1-.3.3-1.3.5-2.3.2-1.1.6-2.2 1-2.5.9-1 55.7-.7 58.4.2 1.8.7 2.2.6 1.6-.3-.6-1-.3-1.1 1.5-.1 1.2.6 3.1 1 4.1.7 1-.3 1.9-.1 1.9.5s1.3.7 3.1.3c4.2-.9 9.5-.9 11.1.1.7.5 2.5.7 4 .5 1.6-.1 2.8.2 2.8.7 0 .5 2.7 1.2 5.9 1.4 3.3.2 6.7 1 7.6 1.8.9.8 2.6 1.4 3.7 1.5 1.1.1 2.3.6 2.6 1.2.4.5 1.4 1.3 2.2 1.6 1.1.4 1 .6-.4.6-1.5.1-1.6.4-.6 1.6 1.7 2 3 1.9 3-.3.1-2.7 3 3.2 3.2 6.5.1 1.5.5 3.3.9 3.8 1 1.4.6 17.5-.4 17.5-.5 0-.5.9-.2 2 .4 1.3.1 2.2-.9 2.6-.9.3-1.6 1.6-1.6 2.8 0 3.6-10.4 12-20.1 16.3-7.1 3.2-8 3.4-12.6 2.7-3.9-.6-4.2-.8-2.6-1.9 2.2-1.6 1.2-2.9-1.5-2.1-1.1.4-1.9 1.4-1.8 2.4.1 1.3-.6 1.6-2.6 1.4-2-.2-2.8.2-2.8 1.3 0 .8-.4 1.5-1 1.5-.5 0-1 1.4-1 3.1 0 2-.4 2.8-1.1 2.3-.9-.5-1 .9-.7 4.9.3 4.3.2 5.4-.9 5-.7-.3-1.3-.1-1.3.5s.5 1.2 1.1 1.4c.6.2 1.1 1.9 1 3.8-.2 8.7.1 13.5 1 13.8 1.4.5 1.1 5.2-.3 5.2-.9 0-.8.4.2 1 1.2.8 1.3 1.3.3 3-1.6 2.4-1.7 3.3-.3 2.5.6-.4 1 .8 1 2.9 0 2-.5 3.6-1.1 3.6-.8 0-.8.4-.1 1.2.6.7.9 4.9.8 9.3l-.1 8 5.1 5.1c2.8 2.8 6.2 5.4 7.5 5.7 1.3.4 5.2 3.3 8.6 6.4 8.2 7.7 9.6 8.8 11.7 9.6.9.4 1.4 1.1 1.1 1.7-.3.5.2 1 1.2 1 1 .1 3.8 1.9 6.2 4.1 2.4 2.2 3.6 3.7 2.5 3.3-1.7-.6-1.6-.4.3 1.5 1.2 1.1 2.6 2.1 3 2 2.1-.3 3.3.2 3.3 1.6 0 .9.6 1.2 1.6.8 1-.4 1.7.1 2.1 1.6.3 1.1.9 1.8 1.4 1.5.5-.3.9 0 .9.5 0 .6.7 1.1 1.5 1.1s1.5.5 1.5 1.1c0 .5.4.7 1 .4.6-.4.7.1.3 1.1-.4 1.2-.3 1.5.5 1 .7-.4 1.2-.2 1.2.3 0 .6.6 1.1 1.3 1.1 1.8 0 5.7 3.4 5.7 4.9 0 .6.6 1.1 1.4 1.1.8 0 1.6.7 2 1.5.3.8 1.4 1.5 2.5 1.5 1 0 3.2.7 4.7 1.5 2.4 1.2 2.6 1.5.9 1.6-1.5 0-1.1.5 1.4 1.5 1.8.8 4 1.3 4.7 1 .7-.3 1.6-.1 1.9.4.8 1.2 5.5 1.3 5.5.1 0-.9 6.9 1.2 10.4 3.2 1.9 1.1 20.6 1.8 20.6.8 0-.3-.8-1.4-1.7-2.5-1.6-1.9-1.6-1.9-.1-.7 2.3 1.7 3.9.5 3.2-2.5-.4-1.6-.2-2.4.6-2.4.9 0 1-.3.1-1.4-.6-.7-.9-2-.6-2.8.4-1-.1-1.7-1.5-2.1-1.2-.3-2.4-1.5-2.7-2.6-.3-1.2-2-2.5-4.6-3.3-2.2-.7-4.2-2-4.5-2.8-.3-1.3-.2-1.3.8 0s1.1 1.2.6-.3c-.3-1-.6-2.1-.6-2.3 0-.2-.9-.4-2-.4s-2-.4-2-1c0-1.4-4.2-5-5.2-4.4-.5.3-.7.2-.6-.3.5-1.6-4.1-6.5-5.3-5.7-.8.5-.9.3-.4-.6.8-1.3-3.4-5.5-6.6-6.5-1-.4-1.8-1.2-1.6-1.8.1-.7-.4-1.1-1-.9-.7.1-1.3-.3-1.3-1 0-1.6-4.9-5.8-6.7-5.8-.8 0-1.1-.5-.8-1.1.4-.6-.2-1.3-1.4-1.6-1.1-.3-1.8-.9-1.6-1.4.7-1-3-3.1-4-2.1-.3.4-.5 0-.3-.8.1-.8-.4-1.4-1.2-1.5-.8-.1-1.4-.6-1.2-1.3.1-.7-.5-1.2-1.3-1.2s-1.5-.5-1.5-1.1c0-.5-.4-.7-1-.4-.6.4-.7-.1-.3-1.1.5-1.4.3-1.6-1.2-1-1.1.4-1.6.4-1.3 0 .9-.9-1.8-3.5-3.2-3.2-.7.2-1.7-.6-2.3-1.7-1.5-2.5-2.9-3.5-4-2.8-.4.3-1.1-.4-1.4-1.6-.3-1.2-1.6-2.4-2.9-2.7-1.3-.3-2.4-1-2.4-1.5s-.4-.9-1-.9c-.5 0-3.2-2.2-5.9-4.8l-5-4.9-.1-7.9c-.2-12.4-.3-12 3.3-13.5 1.7-.8 3.8-1.2 4.5-1.1.6.2 1.2-.2 1.2-.7 0-.5 1.6-1.5 3.5-2.2 1.9-.7 3.5-1.7 3.5-2.1 0-.4.5-.8 1.1-.8 1.5 0 9.5-5.6 15.9-11.1 7.4-6.4 16.9-21.3 19.2-29.9 1.8-6.9 2.5-30.6.9-29.6-.5.3-1.1-1.1-1.4-3.2-2.2-13.3-6.8-24-11.6-27-1.5-.9-4.8-3.6-7.4-6-2.7-2.4-5.1-4.2-5.4-3.9-.3.3-1.6-.7-3-2.4-1.4-1.6-2.9-2.9-3.5-2.9-.6 0-3.2-1.1-6-2.5-2.7-1.4-5.4-2.5-5.9-2.5s-1.8-.8-2.9-1.8c-1.1-.9-2.8-1.8-3.8-1.9-2.5-.2-6.1-1.1-7-1.7-1.9-1.2-35.5-2.2-37.2-1.1-.4.3-13.1-.1-28.1-.7-25.7-1.1-27.6-1-31.2.7-3.8 1.8-3.8 1.7-5.9-.4-1.1-1.2-2.7-2-3.5-1.7-.8.3-1.1.2-.8-.4.8-1.3-3.7-.8-6 .7-2.4 1.6-5.5 1.7-5.5.2 0-.6-.7-.9-1.5-.6-.8.4-1.7.1-2.1-.5-.5-.7-.2-.8.6-.3s1.1.3.8-.5c-.6-1.9-2.1-2.1-3.5-.5zm-213.2 1c-.1.6-4.7 1-11.8 1-16 0-28.1 1.8-29 4.2-.3.9-.8 1.1-1.2.5-.4-.7-1.9-.4-4.1.5-1.9.9-3.9 1.5-4.3 1.4-1.4-.3-20.9 9.6-25.8 13.1-7.2 5.1-11.7 9.5-13.8 13-1 1.8-2.3 3.2-2.9 3.1-1.5-.3-12.6 14.5-17.1 22.9-4.7 8.7-9.6 20.8-12.1 29.8-1.7 5.9-3.7 18.9-3.1 19.9.2.2-.2.7-.8 1-1.7 1.1-1.8 29.5-.1 30.6.6.4 1 .1 1-.6 0-2.4 1.4.3 2.7 4.9.6 2.6 1 5.4.7 6.3-.3 1 .3 1.9 1.2 2.3 1.1.4 1.4 1.4 1.1 2.9-.3 1.3.6 4.1 2.4 7.2 3.7 6.6 6.2 11.7 6.5 13.3.3 1.9 5 8.8 9.6 14.3 2.1 2.6 3.8 5 3.8 5.4 0 1.3 10.6 12.4 15.1 15.8 8 6.1 19.3 12.3 27.9 15.5 9.7 3.6 23.7 7.3 28.9 7.7 2 .1 6.4.6 9.8 1 3.4.4 7 .4 8 0 1-.3 4.7-.8 8.3-1.1 7.4-.4 15.7-1.3 19.1-1.9 1.3-.3 4-.8 5.9-1.1 4-.6 16.9-4.9 21.9-7.2 1.8-.8 4.4-2.6 5.7-3.9 1.3-1.3 2.9-2 3.8-1.7 1 .4 1.6.1 1.6-.8 0-.8 1.6-2 3.5-2.8 1.9-.8 3.5-1.7 3.5-2.1 0-.4 1.6-1.5 3.5-2.6 3.7-1.9 14.5-11.9 14.5-13.4 0-.4 2.9-4.1 6.5-8.1 3.6-3.9 6.5-7.8 6.5-8.5 0-.8 1.1-2.6 2.5-4.1 1.4-1.5 2.5-3.2 2.5-3.9 0-.7.5-1.3 1-1.3.6 0 1-.5 1-1.1 0-.7 1.3-3.3 2.9-5.9 2.5-4.1 5.8-15 5.3-17.3-.1-.4.5-2.1 1.3-3.7s1.2-3.5.9-4.3c-.7-1.8 4-2.7 14.1-2.7 3.9 0 11.8-.1 17.6-.1 9.6-.1 10.9.1 12.8 2 1.2 1.2 2.1 2.4 2.1 2.7 0 .4 1.5 2 3.4 3.8 1.8 1.7 4.3 4.7 5.5 6.6 1.1 1.9 2.1 3.1 2.1 2.7 0-.5 1.5.8 3.4 2.7 1.8 2 3.7 3.6 4.1 3.6 1.1 0 7.5 7.2 7.5 8.4 0 .6 1.9 2.2 4.1 3.6 2.3 1.4 3.7 3 3.4 3.8-.3.8 0 1 .7.6.8-.5.9 2.2.5 10.3-1 16.7-1.4 35.3-.8 35.3.3 0 .5 4.7.3 10.5-.3 8.6-.1 10.5 1.1 10.5 1.7 0 2.7 4.2 2.7 11 0 3.4.4 5 1.6 5.4 1 .4 1.3 1.3.9 2.6-.3 1.1-.2 2 .2 2 1.1 0 5.3-5.5 5.3-7 0-.5.5-1 1-1 .6 0 1-1.8 1-4s.4-4 1-4c.5 0 .9.3.9.7-.1.5-.1 1.7 0 2.8.2 1.9.3 1.9 2.1-.4 1.5-1.8 2-1.9 2-.7 0 .9-.5 1.6-1.1 1.6-.8 0-1 2.1-.6 6.9 1 10.6 2.7 13.6 7.3 12.5l2.6-.7-.6-10.6c-.3-5.8-.2-12.2.3-14.1.5-2.1 1-2.7 1-1.5.2 2 .2 2 1.6.1.8-1.1 1.5-1.4 1.5-.7s.5.9 1 .6c.6-.3 1 0 1 .7s1 0 2.3-1.6c1.6-2 2.2-4.2 2.3-7.9.1-2.9.4-6.7.7-8.5.3-1.8.1-3.2-.4-3.2-.6 0-.7-.5-.3-1.1.6-1.1 1.7-31.4 1.5-41.4 0-2.6.2-3.5.8-2.6.6.9 1.1 1 1.5.2.4-.6.4-1.7-.1-2.4-.4-.6-.9-2.1-1-3.2-.1-1.1-.6-4.5-1-7.7l-.8-5.6-21.3-20.6c-11.7-11.3-21.8-20.6-22.5-20.6-.6-.1-3-1.9-5.2-4-2.2-2.2-4.3-4-4.7-4-.5 0-.8-.6-.8-1.3 0-.7-.9-1.8-2-2.5s-2-1.8-2-2.5-1.9-2.4-4.2-3.8c-4.2-2.3-4.9-2.4-29.3-2.6-13.7-.2-26-.5-27.2-.8-1.9-.4-2.2-1.2-2.1-5.4 0-2.8-.4-5.6-.8-6.3-1.1-1.7-1.3-2.8-2.3-11-.6-4.9-1.6-7.6-3.7-10.4-1.6-2-2.7-3.9-2.4-4 .3-.2-.3-1.3-1.3-2.4-1-1.2-2.3-1.8-2.9-1.4-.6.4-.8.3-.4-.4.7-1.2-2.1-7.7-4.4-10.3-.8-.9-2.2-2.5-3-3.5-6.2-8-11.4-13.3-14.2-14.5-1.8-.7-6.4-3.4-10.3-6-15.1-10.2-36-19.1-47.8-20.4-2.6-.2-5.5-.9-6.5-1.3-.9-.5-3.4-.8-5.4-.8-2.1.1-3.8-.2-3.8-.7 0-.5-.6-.4-1.4.2-1.1.9-1.5.9-1.9-.1-.3-.7-.6-.9-.6-.3zm7.9 40.6c1.9.4 5.2 1 7.3 1.3 2.1.4 3.7 1.3 3.7 2 0 1.6 4.8 2.7 5.7 1.3.3-.5 1.4.1 2.4 1.4 1.6 2 2 2.2 2.9.9.8-1.3 1-1.3 1 .1 0 .9 1.1 2 2.5 2.3 1.6.4 2.2 1.1 1.9 2.1-.4.8-.1 1.5.5 1.5s1.1-.5 1.1-1c0-2 1.8-.9 8.1 5.2 3.5 3.4 6.7 6.1 7.1 6 .4-.1.5.5.2 1.3-.4.8-.2 1.5.4 1.5.5 0 1.3 1.2 1.6 2.6.5 1.8 1.2 2.4 2.2 2 1.5-.6 6.4 3.4 6.4 5.2 0 .5.9 1.9 2 3.2 1.1 1.3 2 2.8 2 3.5 0 .7.9 2.2 1.9 3.4 1.9 2.1 3.1 7.7 3.3 15.3.1 2.1.7 3.9 1.5 4.2.7.3 1.3 1.9 1.3 3.6 0 1.8-.4 2.9-1 2.5-.5-.3-1 .3-1 1.5s.5 1.8 1 1.5c1.1-.7 1.4.8.3 1.8-.3.4-.7 2.8-.9 5.4-.1 2.7-.3 4.8-.4 4.8-.1 0-.3 1.5-.6 3.3-.3 2.3 0 3.1.7 2.6 1.6-.9.9 2.5-3.1 15.4-2.2 7.5-4.3 12.1-7.5 16.5-2.5 3.4-5.2 7.2-6 8.5-.9 1.2-4.2 4.1-7.3 6.4-3.1 2.3-6.4 4.9-7.2 5.7-.8.8-3.5 2.3-6 3.4s-5.7 2.8-7.2 3.8c-1.5 1.2-3.3 1.6-4.4 1.2-1.3-.5-1.5-.3-.9.8s.5 1.1-.5.2c-1-.9-2.5-.7-6.8.9-3.1 1.2-6.5 2.2-7.6 2.3-1.2.1-2.4.3-2.9.4-.4 0-.5 1.2-.1 2.6.3 1.4.2 2.5-.4 2.5-1.1 0-3.4-2.5-2.8-3.1.2-.2-3.9-.5-9.2-.7-5.3-.1-10.1-.7-10.7-1.2-.7-.6-1.4-.8-1.6-.5-.6.5-14-2.7-18.3-4.4-1.7-.7-3.6-2.1-4.3-3.1-.8-1.1-2.1-2-2.9-2-.8 0-1.4-.5-1.4-1 0-.6-.7-1-1.6-1-.9 0-1.2-.5-.8-1.2.5-.8.2-.9-1-.5-1 .4-1.5.3-1.1-.3.3-.5-3.1-3.4-7.7-6.3-4.6-3-9.4-6.6-10.8-8.1-1.4-1.6-3.3-3.5-4.2-4.4-1-.9-1.8-2.2-1.8-2.9 0-.7-.4-1.3-.8-1.3-.5 0-1.5-1.9-2.2-4.1-.8-2.3-2.1-4.8-2.8-5.6-.8-.8-1.5-3.2-1.5-5.3 0-2.2-.3-3.7-.7-3.5-.4.3-1-.8-1.3-2.3-.3-1.5-.1-2.9.4-3 1.3-.5 1.1-3-.2-3.4-2.3-.8-2.3-18.4.1-31.8 3-17.9 10.4-32.4 21.4-42 2.3-1.9 5.5-4.9 7.3-6.7 1.8-1.7 3.3-2.9 3.3-2.5 0 .3.9-.3 1.9-1.2 1.1-1 2.5-1.5 3-1.1.6.3 1.1.2 1.1-.4 0-2.2 15.7-7.4 25.5-8.4 5.9-.6 25.1-.4 28.5.4zm789.1-40.5c-.1.7-.7 1.1-1.3 1.1-.7-.1-4.5.2-8.5.7-13.2 1.5-30.3 1.8-109.3 2-55 .2-78.7-.1-79.2-.8-.6-.8-1.1-.7-1.7.3-.7 1-1 1-1.3.1-.7-2.1-19.8-1.5-19.8.6 0 .7-.5 1.4-1.1 1.6-1.4.5-2.1 7.8-.8 7.8.5 0 .9.4.9 1 0 .5-.6 1-1.4 1-1.8 0-3 3.1-1.6 4 .6.4.8 1.4.4 2.3-.4 1.2-.1 1.7 1 1.7.9 0 1.6.4 1.6 1 0 .5-.3 1-.7 1-.5 0-.9 3-1.1 6.8-.2 6.6-.2 6.7 2.8 8.1 1.7.7 4 1.1 5 .8 1-.3 2-.2 2.2.2.5 1.3 18.2 4 19.5 3 .6-.6 1.4-.6 1.7-.1.8 1.3 17.6 1.4 17.6.1 0-.8.4-.9 1.3 0 .8.6 1.6.8 1.9.6.3-.3 4.3-.7 8.8-1 10.6-.5 16.2-1.4 15.4-2.6-.3-.5.6-.5 2.1.1 1.8.7 3.1.6 4.5-.2 1.4-.9 2.5-.9 4.4 0 1.7.7 3.5.8 5.8.1 4-1.2 21.1-1 21.9.3.3.5 1.6.5 3.1-.1 1.8-.7 2.9-.6 3.7.2.7.7 1.1.8 1.1 0 0-1.2 8.9-.6 10.3.7 1.1 1 4.7.1 4.7-1.1 0-.5 2.3-.9 5-.9 2.8 0 5 .3 5 .8 0 .4-8 8.9-17.8 18.9-9.8 10-21.4 21.9-25.7 26.5l-8 8.3h-6c-3.3 0-6.2-.3-6.5-.6-.3-.4-2.8-.9-5.6-1.2-4.3-.4-5.5-.1-6.9 1.5-1.3 1.6-2.5 1.9-5 1.5-2.5-.4-4.1 0-5.8 1.3-2.3 1.9-2.4 2.3-2 12.2.7 18.4.6 23.7-.5 25.1-.7.8-.9 1.6-.6 2 .3.3-.4.8-1.5 1.2-1.2.3-2.1 1.1-2.1 1.6 0 .6.5.7 1.1.3.7-.4 1-.1.7.7-.3.8-1 1.5-1.6 1.5-.7.1-1.6.2-2.1.3-.6 0-4.2 3.1-8 6.8-5.7 5.4-7.1 7.4-7.1 9.7 0 1.6-.3 2.7-.6 2.3-.9-.8-2.5 1.1-4.8 5.6-1.4 2.6-2.4 3.6-3.5 3.2-.8-.3-1.2-.3-.8.1 1 1-3.3 6.5-4.5 5.8-.7-.4-.8-.2-.4.4.4.7-.9 2.3-3.1 3.9-5.1 3.7-18 18-24.6 27.4-3 4.1-7.4 9.5-9.9 12-2.7 2.6-4.8 5.8-5.3 7.7-.4 1.8-1.3 3.6-2.2 3.9-.8.3-1.2 1.2-.9 1.9.3.8.1 1.4-.4 1.4-1.7 0-1.1 4.9.8 5.9.9.6 1.1 1.1.5 1.1-2.6 0-1.2 2 1.5 2 2.6 0 6.7 1.8 4.7 2.1-.5.1.4.5 2 .8 1.7.4 3.6.3 4.3-.2.9-.7 1.7-.6 2.4.1 2 2 3.9 1.4 7.4-2.5 1.9-2 3.4-3.1 3.4-2.4 0 .7.4 1 .9.6.5-.3 1.2-.1 1.6.5.3.5 1.1 1 1.6 1 .6 0 .8-.4.4-.9-.3-.6.3-1.5 1.4-2 2.4-1.3 4.2-1.4 2.1-.1-1.7 1-1.4 1.5 1.8 2.4 1.6.6 2.2.3 2.2-.9 0-.9-.4-1.3-1-1-.5.3-1 .1-1-.5 0-1.4 34.2-1 35.3.5.4.6 1.1.4 1.8-.5.8-1.1 1.2-1.2 1.6-.3.2.7 1.4 1.3 2.4 1.3 1.1 0 1.8-.4 1.5-.9-.3-.4 5.2-.7 12.2-.5 16 .5 24.8.6 33.7.4 3.9 0 10.7.1 15.3.4 4.5.3 8.2.2 8.2-.2 0-1 4.2-.8 5.8.2.7.4 1.9.2 2.7-.4.9-.7 2.8-1 4.7-.6 3.5.6 5.4.5 5.1-.5-.1-.3 2.2-.2 5 .2 2.9.3 5.5.5 6 .2.4-.2 1.2-.1 1.9.3 2.6 1.6 38.6 2.4 53.8 1.1 7.9-.6 12.4-2.2 11.7-4.1-.4-1 0-1.2 1.4-.9 1 .3 1.9 0 1.9-.6s-.5-1.1-1.1-1.1c-.8 0-.9-1.1-.5-3.1.6-3.1.6-3.1-3.2-2.5-2.6.4-3.1.3-1.7-.4 1.1-.5 3.1-.9 4.4-.9 2.3-.1 2.3-.2.7-2-1-1.1-2.7-2.2-3.9-2.5-2-.5-2.2-1.1-1.9-5.1.3-3.6.1-4.5-1.2-4.5-.8 0-1.3-.6-1.1-1.3.6-1.8-1.6-4.1-5-5.4-8.2-2.9-11.1-3.5-18.8-3.8-4.5-.1-11.1-.8-14.7-1.5-3.9-.7-14.2-1.1-25.5-1-10.4.1-30.5.1-44.5 0s-27.2.1-29.2.5c-2.3.3-3.8.1-3.8-.5 0-.5-.9-1-2.1-1-1.1 0-3-.5-4.1-1.1-1.4-.8-2.3-.8-3.1 0-.6.6-1.5 1.1-2.1 1.1-.5 0 .9-1.8 3.2-4 2.2-2.2 4.5-4 5.1-4 .6 0 1.1-.9 1.1-2.1 0-1.1-.4-1.8-.9-1.5-.5.4-1.2 0-1.4-.6-.4-1-.8-.9-1.6.2-.6.8-1.1 1.1-1.1.6 0-1.4 20.5-22.6 22-22.6.5 0 1-.5 1-1.1 0-1.2 7-7.8 8.3-7.9.4 0 .7-.5.7-1.1 0-.6.8-2.3 1.9-3.7 1.4-2 1.8-4.3 1.7-9 0-3.4.3-6.2.7-6.2.4 0 .7-1.9.7-4.3-.1-2.3-.1-9.6-.1-16.1l.1-12 2 2.2c2 2.2 3.6 3 2.6 1.4-.3-.5.1-.9.9-.9s1.1.5.8 1c-.4.6 0 .8 1 .4 1-.3 1.7-.3 1.7.2 0 1 15.9 1.3 17.5.3 1.6-1 3.5-1.1 3.5-.2 0 .4 1.4 1 3 1.2 1.7.3 3 .1 3-.4s.9-.7 1.9-.3c1.2.3 2.5 0 3.3-1 .7-.9 2.1-2.4 3.1-3.3.9-.9 1.7-2.2 1.7-2.8 0-.6 4.7-6 10.5-11.9 5.7-6 10.5-11.7 10.7-12.7.2-1 .7-1.8 1.1-1.7 1.3.2 6.6-5.1 9.2-9.1 2.5-3.9 13-15 14.2-15 1.3-.1 5.3-3.8 5.3-4.9 0-1.5 16.5-18.1 18-18.1.6 0 .8-.5.5-1-.3-.6.1-1 .9-1 1 0 1.6-.9 1.6-2.3 0-1.6.3-1.8.9-.9 1.2 2 4.2 1.1 7.9-2.6 2.5-2.4 3.9-3.1 5.5-2.7 1.2.4 1.8.3 1.2-.2-1.3-1-1.4-5.2-.2-5 1.2.3 2.8-5.3 1.9-6.7-.3-.6-.7-1.7-.8-2.4-.4-2.1-1.1-2.5-4.6-2.5-1.8 0-3.6-.5-4-1.1-.5-.8-1.3-.8-2.7.1-1.5 1-2.1 1-2.4 0-.4-.8-.6-.8-.6-.1z"/><path d="M1417.5 137.1c-20 1.5-28.3 3.5-37.8 8.9-3.8 2.2-7 4-7.2 4-.2 0-2.4 1.3-4.8 3-2.5 1.6-4.7 3-5 3-1.2 0-14.4 12.3-18.7 17.5-2.8 3.4-6.6 8.6-14.2 19-7.6 10.6-14.9 27.3-16.3 37.3-.4 2.9-1.2 5.5-1.8 5.9-1.3.8-40.4.6-41.7-.2-.5-.3-1.9-.1-3 .5-1.6.8-2.5.8-3.5 0s-1.5-.8-2 .1c-.6.8-.9.8-1.4 0-.4-.6-3.2-1.1-6.2-1.1-7.8.1-16.9-.1-20.4-.4-1.6-.1-3.6.2-4.2.7-.9.7-1.3.5-1.3-.7 0-1.9-.1-1.9-3.7-.5-4.2 1.7-11.3 2.7-11.9 1.7-.3-.5-1.2-.4-1.9.2-1.4 1.1-.9 5 .6 5 .5 0 .9.5.9 1.1 0 .6-.8.8-1.9.4-1.1-.3-2.9 0-4 .7-2.2 1.3-2.9 5.4-1 6 .5.2 1.3 2.2 1.6 4.6.6 4.2 1.6 5.4 2.7 2.9.3-.6.3 0 0 1.5-.4 1.7-.2 2.8.5 2.8.6 0 1.1.5 1.1 1.1 0 .7.8 1.8 1.8 2.6 1.3 1 1.3 1.3.2 1.1-1.7-.3-2.5 3.9-1.1 6.1 1.2 1.9 6 2.3 35.4 2.6 19.1.3 25.7 0 25.7-.8s.3-.8.8.1c.9 1.3 9 1.1 12.6-.3 1.1-.5 2.1-.3 2.7.6.5.8.9.9.9.3 0-.7 2.8-1 8.2-.9 4.6.2 9.3-.1 10.5-.6 2.4-.9 2.3-1 3.7 9.2.2 2 1.4 5.8 2.6 8.4 1.2 2.6 1.9 5 1.6 5.3-.3.3.1 1.4 1.1 2.4.9 1 1.4 2.1 1 2.4-.7.7 4.3 12.5 5.9 13.9.6.5 2.6 3.7 4.4 7 1.8 3.3 3.9 6.7 4.6 7.6.8.8 1.4 1.9 1.4 2.3 0 .4 2.1 2.7 4.8 5.2 2.6 2.5 4.7 4.8 4.7 5.3 0 1 8 9.1 9 9.1.4 0 1.6 1.1 2.7 2.5s2.7 2.5 3.6 2.5c1 0 2.3.9 3 2 .7 1.1 2 2 3.1 2 1 0 2.6.9 3.6 2s2.6 2 3.7 2c1 0 2.7.9 3.9 2.1 1.5 1.5 3 2 5 1.7 2.1-.3 2.8-.1 2.5.8-.3.7.6 1.5 2.2 1.9 1.4.3 4.5 1.5 6.8 2.6 2.3 1 6.8 2.2 10.1 2.5 3.2.4 6.3 1 6.8 1.4.6.4 2.4.6 4 .5 1.7-.1 3.5.1 4 .4 1.9 1.1 11.7 1.1 13 .1.7-.6 3.3-1 5.7-.9 5.6.2 21-2.6 31.2-5.8 4.5-1.3 10-3 12.4-3.6 2.3-.6 4.2-1.5 4.2-2 0-.4.5-.5 1-.2.6.3 1.3-.1 1.6-.9.3-.9 1.5-1.6 2.5-1.6s1.9-.7 1.9-1.5.9-1.5 2-1.5c2.2 0 3.6-.9 7.5-4.8 1.2-1.2 3-2.2 3.9-2.2.9 0 1.6-.7 1.6-1.5s.6-1.5 1.4-1.5c.7 0 2.9-1.5 4.9-3.3 1.9-1.7 4.4-3.9 5.4-4.7 1.9-1.6 4.8-6.9 4.4-8.3-.1-.5.2-.6.7-.3 1.3.8 6-3.7 5.4-5.2-.2-.7.2-2.1 1-3 .8-.9 2-3 2.6-4.5.7-1.7 1.7-2.5 2.4-2.1.8.5.9.2.5-.9-.4-1-.2-1.6.5-1.4.6.1 2.6-2.9 4.5-6.7 3-5.9 3.3-7.3 2.4-9.4-1-2.1-.9-2.3.4-1.9 1 .5 1.5 0 1.5-1.3s-.5-1.8-1.5-1.4c-2.7 1.1-1.6-.5 1.4-2.1 2.2-1.1 3-2.2 2.9-4.2 0-1.6.5-4.8 1.2-7.3 2.2-8.6 3.1-15.6 3.1-25.8 0-5.6-.2-10.6-.6-11.1-.3-.5-.8-3.6-1.1-6.8-.4-3.2-1.4-8.3-2.4-11.3s-2.1-6.8-2.5-8.5c-.8-3.7-9.9-22-12.9-26-1.3-1.7-3-4.4-3.9-6.2-1.9-3.5-18.2-20.4-23.6-24.3-1.9-1.4-4.7-3.6-6.3-4.8-7.1-5.9-39.9-19.5-42.8-17.7-.5.3-1 .2-1-.4 0-1.9-23-3.1-37.5-2zm3.5 41.8c0-.7.7-.8 1.8-.4 2.1.9 7.2 1 10.7.1 1.4-.4 2.5-.3 2.5.2 0 .4 2.3 1.4 5.1 2.1 4.6 1.2 5.1 1.2 6.4-.5.8-1.1 1.5-1.4 1.5-.7s1.7 1.7 3.8 2.2c2 .6 6.8 2.6 10.6 4.6 3.8 1.9 8.4 3.8 10.3 4.1 2 .4 4.1 1.7 5.3 3.4 1.1 1.5 4 3.7 6.4 4.9 2.4 1.1 4.7 3 5.1 4.1.3 1.1 1.3 2 2.1 2s1.4.9 1.4 2c0 1 .8 2.7 1.8 3.7 4.1 4 11.4 21 14.3 33.3 2.7 11-1.3 38.5-7.2 50.2-1.2 2.4-2.7 5.3-3.3 6.5-.6 1.2-2.1 2.8-3.3 3.4-1.3.7-2.3 1.8-2.3 2.4 0 .6-2.5 3.5-5.5 6.4-3 2.9-5.5 5.9-5.5 6.7 0 .7-1.1 1.6-2.5 2-1.4.3-2.5 1-2.5 1.6 0 .5-1.3 1.4-3 1.9-1.6.6-3 1.5-3 2s-.9.9-2 .9c-3 0-12 4.8-12 6.4 0 .8-1.1 1.3-2.5 1.3s-3.8.6-5.5 1.3c-1.9.8-3.4.9-4.3.3-1.3-1-3.5-1-14 .1-4 .5-7.3.3-9.2-.5-1.7-.6-4.6-1.1-6.5-1.1-2.6.1-3-.1-1.6-.7 1.5-.6 1.7-.9.6-1.6-.8-.5-1.7-.3-2.4.6-1.2 1.6-4 1.8-5.3.5-.4-.5-.3-.6.4-.2.6.3 1.4.2 1.8-.3.8-1.3-2.4-2.9-7.4-3.7-2.3-.4-4.8-1.2-5.4-1.8-.7-.6-3.8-2.4-6.9-4.1-3.2-1.6-5.8-3.3-5.8-3.7 0-.4-.6-.8-1.4-.8-2.1 0-19.2-17.1-20.1-20-.4-1.4-1.3-3.2-2-4-1.2-1.3-2.3-6-4.2-16.5-.2-1.7-.9-3.1-1.4-3.3-.5-.2-.4-1.2.1-2.3.6-1 .7-1.9.2-1.9-1 0-1.1-.7-1.8-20.2l-.6-16.6 3.4-7.4c1.9-4 4.1-8.9 4.8-10.8.8-1.9 3.6-5.9 6.4-8.8 2.8-2.9 5.5-6.1 5.9-7.1.5-.9 3.9-3.4 7.5-5.4 3.7-2 8.9-5.2 11.7-7.1 2.7-2 5.6-3.6 6.2-3.6.7 0 1.3-.4 1.3-1 0-.5 1.2-1.3 2.8-1.6 1.5-.4 3.2-1.1 3.8-1.6 1.9-1.4 9.7-2.5 12.2-1.7 1.4.6 2.2.5 2.2-.2zm243.3 103.7c-1.3 1.4-2.3 3.2-2.3 4 0 .8-.4 1.4-1 1.4-.5 0-.7-.7-.4-1.5.4-.9 0-1.5-.7-1.5-1.1 0-1.1-.3.1-1.1 1.2-.9 1.2-1 .1-.7-2.3.7-3.3 5.6-1.2 6.2.9.2-.8.2-3.8 0-4.7-.4-5.3-.3-4.7 1.2.5 1.4.4 1.5-.9.4-1.2-1-1.9-1-2.8-.1-.9.9-.9 1.4 0 1.9.8.5.9 1.3.3 2.2-.8 1.2-1 1.2-1 .1 0-1-.3-1.1-1.4-.2-1 .8-1.2 2.9-.9 7.9.8 12.4.8 26.2 0 26.5-.5.1-.3 1.5.4 3 .9 1.9.9 3.1.3 3.5-.6.4-1 2-.9 3.7.1 1.6-.2 3.6-.8 4.2-.6.9-.5 1.3.4 1.3 1.1 0 1.1.2-.1 1-1.3.9-1.3 1.1 0 2 1 .6 1.1 1 .3 1-.7 0-1.3 1.1-1.3 2.5s.6 2.5 1.3 2.5c.9 0 .9.2 0 .8-1.6 1-2.9 19.2-1.3 19.2.6 0 .8.5.3 1.2-.9 1.4-1.1 16.8-.3 16.8.7 0 .4 9-.5 13-.5 2.5-.4 3.1.5 2.5.8-.5 1.1-.4.7.2-.3.5-.9 10.6-1.3 22.4-1 28.7-1 29-.2 47.8.5 13.4 1 16.6 2.2 17.3 1.2.7 1.4 1.4.6 2.8-1.4 2.7-1.2 5.6.5 7.4.9.8 1.5 1.9 1.5 2.3-.2 1.5 5.2 7.4 6.3 7 .6-.2 2.1 1 3.2 2.7 1.9 2.8 2.6 3.1 7.3 3.2 3.1.1 5.2-.3 5.2-1 0-.6.7 0 1.6 1.2 1.4 2.1 5.4 3.1 5.4 1.4 0-.5 1.4-.7 3-.4 2 .3 3 0 3-.8 0-1 .3-1 1.5 0 2.1 1.8 6.1-1.1 7-5 .4-1.6 1.1-2.8 1.6-2.4.5.3 1-.1 1.1-.8.2-2.1.5-3.2 1.1-4.8 1.5-4 1.7-7 .5-7-1 0-1.3-4.2-1.5-17.8-.3-35.6-.6-43.7-1.7-44.4-.7-.5-.7-.8.2-.8.9 0 1.1-1.2.6-4.8-.3-2.6-.7-13.6-.8-24.5-.1-16.4-.4-19.9-1.6-20.7-1.1-.7-1.1-1-.2-1 .9 0 1.1-1.2.8-4-.3-2.2-.2-4 .3-4 .4 0 .6-2.4.4-5.3-.6-11.4-.1-50.2.7-50.7 1.2-.7 2.2-8.7 1.5-11-.4-1.1-1.4-2-2.3-2.1-1.3 0-1.1-.3.6-1.1 1.3-.7 2.1-1.7 1.7-2.6-.3-.7-.5-3-.5-5.1 0-3.1-.4-3.9-2.7-4.8-1.9-.8-2.2-1.1-.8-1 2.6.3 2.7-2.6.1-3.1-1-.2-2.2.2-2.7 1-.7 1-.9.9-.9-.5 0-.9-.4-1.7-.8-1.7-.5 0-1.9-.9-3.2-2-2.5-2.1-2.6-2.2-11.1-2.4-4.6-.1-5.6.2-5.2 1.4.4 1.3.3 1.3-.5.1-1.3-1.9-.5-3.9 1.9-4.6 1-.4 1.9-1.3 1.9-2.1 0-2.1-1.2-1.7-3.7 1.2zM924 489v29h13v-58h-13v29zm33 0v29h13v-58h-13v29zm-422.9-17.2c-10 .1-18 .7-18.7 1.3-.7.5-1.4.6-1.7.2-.3-.4-31.8-.8-70.1-.8-52.8 0-69.8.3-70.7 1.2-.9.9-1.7.9-3.2.2-2.5-1.4-12.2 1.5-15.1 4.5-1.2 1.2-3.3 2.7-4.8 3.4-2.7 1.1-3.9 3.2-1.9 3.2 1.3 0 0 4.4-1.6 5.3-1.5.9-1.8 3.7-.3 3.7.5 0 .7.6.5 1.2-.9 2.4 2 6 6 7.5 4.4 1.6 17.7 1.8 74.5.7 43.9-.8 61.7-.8 69.5.1 7.7.9 57.5 1.3 57.5.5 0-.3 1.6-.6 3.5-.7 1.9-.1 3.5.2 3.5.6 0 .4 3.3.3 7.3-.1 10-1.2 53.6-1.5 54-.4.3 1 35.5 1 53.7 0 6.3-.3 13.1-.2 15 .3 1.9.5 5.1.6 7 .2 2.1-.5 3.7-.3 4.1.3.4.6 1.2.7 1.9.3.6-.4 2.9-.7 5.1-.7 2.1.1 3.9-.2 3.9-.6 0-.4 7.5-.6 16.7-.6 11 .1 17-.2 17.5-.9.4-.7 1.1-.7 2-.1.8.7 12.5 1 31.8.8 19.3-.1 31 .2 31.8.8.8.7 1.2.6 1.2-.3 0-.9.3-1 .8-.3.9 1.4 6.2 2.7 6.2 1.6 0-.5 1.1-.7 2.5-.4 1.5.2 2.5 0 2.5-.7 0-.6.5-1.1 1-1.1.6 0 1 .6 1 1.4 0 1 1.3 1.2 5.3.8 2.8-.3 5.4-.8 5.7-1.1.8-1.1 9.4-.8 10.2.4.5.6.8.4.8-.5 0-1 .3-1.1.8-.4.9 1.4 6.2 2.7 6.2 1.6 0-.5 1.1-.7 2.5-.4 1.5.2 2.5 0 2.5-.7 0-.6.5-1.1 1-1.1.6 0 1 .6 1 1.4 0 1.1 1 1.3 4.3.9 2.3-.2 4.9-.7 5.7-1 .8-.4 2.3-.5 3.3-.4 1.5.2 2.2-.9 1.8-3.2 0-.4.3-.7.8-.7.4 0 2-1.2 3.5-2.6 1.9-1.9 2.4-3.3 2-5-.3-1.3-.2-2.4.4-2.4.5 0 .9-1.5.8-3.3-.2-2.6-.6-3.2-2.4-3.1-1.7 0-2-.4-1.7-2 .3-1.2-.2-3-1-4-1.1-1.5-1.7-1.7-2.9-.7-1.1 1-1.5.9-1.8-.5-.3-1.5-2.8-1.7-25.3-2.1-32.3-.5-139.6-1.1-182-1.1-57.2.2-106.8 0-112.5-.4-3-.1-13.3-.2-22.9 0zm508.9 2.3c-3.6.5-11.4.7-17.3.4-5.9-.2-12.1-.2-13.8.2-3.1.6-4.1 3.3-1.2 3.3 2.3 0 1.2.9-1.8 1.4-3.6.7-3.6.7-1.4 1.6 1.7.7 1.7.9.3.9-1 .1-1.8.6-1.8 1.1 0 .6.3.9.8.9.4-.1 1.6-.1 2.6 0 1.8.1 1.8.3-.4 2.7-2.1 2.1-2.2 2.7-1 3.4.8.5 2.2 1 3 1 1.2.1 1.2.3-.2 1.4-1 .7-1.8 1.6-1.8 2 0 .3.8.6 1.8.7 1.4 0 1.4.2-.3.9-1.8.7-1.8.9 1 2.1 1.7.7 3.5 1.3 4 1.4.6 0 1.5.4 2.2.8 3.5 2.2 23.8 2.7 112.3 2.9 52.5.1 102.9.2 112 .2 9.1.1 32.5-.5 52-1.1 46.8-1.7 65.4-1.8 95.6-.8 19.2.6 25.6.5 27.3-.5 1.3-.7 2.6-.8 3-.4.7 1.1 73.2 1.1 74.9 0 .6-.4 1.2-.3 1.2.3 0 1 5.8 1 7.5-.1.6-.3 6.6-.7 13.4-.7 6.9-.1 12.8-.4 13.1-.6.3-.2 2.8-.5 5.6-.6 2.7-.1 5.4-.6 6.1-1.1.7-.6 1.7-.7 2.3-.3.6.4 1.1.1.9-.6-.3-2.8.1-5 1-4.5.4.3 1.6-.3 2.6-1.4 1.6-1.8 1.6-2-.1-4.9-1-1.6-2.6-3.2-3.6-3.4-1.4-.4-1.7-1.1-1.3-2.9.7-2.6-1.6-5.5-3.5-4.3-.5.3-1 .2-1-.2 0-.5-1.1-1-2.5-1.1-1.4-.1-2.5.2-2.5.6 0 .4-4.9.4-10.8 0-5.9-.3-56-.6-111.2-.6-174.3.1-295.3 0-301.5 0-3.3-.1-11.6-.2-18.5-.3-6.9-.1-15.9 0-20 .3s-8.8.1-10.4-.3c-1.7-.5-3.2-.5-3.5-.1-.9 1-7.1 1.2-7.1.1 0-.5-.3-.8-.7-.8-.5.1-3.7.6-7.3 1zM391.6 588.2c-23.9 3.2-41.1 27.1-37.6 52.1 3.6 24.7 27 42.8 50.6 38.9 17.7-2.9 31.7-15.6 36.6-33.1 8.8-31.7-17.4-62.4-49.6-57.9zm20.6 17.1c5.7 3.3 11.4 9.7 14.1 15.6 3.2 7 3 18.8-.4 26.2-11 23.7-42.8 24.5-54.6 1.5-3.7-7.2-4.3-18.9-1.4-26.7 2.9-7.7 8.3-13.6 15.5-17.1 5.5-2.6 6.9-2.9 14.2-2.5 6.5.3 9 .8 12.6 3zm1062.3-16.9c-15.3 3.8-24.7 15.1-23.1 28 1.4 11.9 9 17 31.6 21.1 22.8 4.1 28.6 8 26 17.5-2.1 7.8-7.2 10-23.2 10H1475l-10.4-10.8-10.5-10.7-4.4 5-4.4 5 11.5 12.2 11.5 12.3h17.2c20.2 0 24.6-1.1 31-7.5 5.7-5.7 7.8-11.6 7.3-20.3-.8-15.1-8.9-20.8-35.7-25.2-17.9-3-22.1-5.2-22.1-11.5 0-2.5.8-4 3.5-6.3 8.5-7.6 26.2-6.9 37 1.4l4.6 3.5 5.4-3.3c3-1.8 5.5-3.6 5.5-4.1 0-1.8-8.3-9.5-12.8-12-9.6-5.2-23.8-7-34.7-4.3zM276 633.5V678h14v-9.3l.1-9.2 8.3-8.7 8.4-8.8H329v-14h-27.7l-5.6 5.9-5.7 6V603h48v-14h-62v44.5zm189 0V678h14v-75h18.6c11.8 0 19.3.4 20.7 1.1 4 2.1 6.7 5.2 7.8 9.1.8 3.2.6 4.6-1 8.2-2.4 5.4-6.1 7.6-13.1 7.6h-5v25.8l11.1 11.6 11.1 11.6h6.4c6.3 0 6.4 0 6.4-2.8 0-2.2-2.3-5.2-10.5-13.9-9.8-10.4-10.5-11.4-10.5-15.2 0-3.8.3-4.1 4.3-5.9 9.5-4.2 15.2-14.4 14.5-26-.4-8.3-3.9-14.8-10.5-19.8-6.1-4.7-11.4-5.4-39.3-5.4h-25v44.5zm107-.1V678h57.6l5.3-2.7c5.5-2.7 10.5-8.4 12.8-14.6 3-8.3.6-20.6-5.4-26.9l-2.5-2.7 1.9-2.8c8.5-12.1 4.1-29.5-9.2-36.6-3.8-2.1-5.5-2.2-32.2-2.5l-28.3-.3v44.5zm57.6-26.1c3.6 4.2 3.4 10.9-.5 14.8-2.9 2.9-3.1 2.9-14 2.9H604v14h11c12.5 0 16 1.1 18.5 6 1.9 3.8 1.9 10.9-.1 13.8-3.3 4.7-5.9 5.2-27.4 5.2h-20v-60.5l20.6.5 20.6.5 2.4 2.8zm42.8-16.9c-.3.7-.4 4-.2 7.2l.3 5.9 7.3.3 7.2.3V664h-15v14h44v-14h-14v-60h14v-15h-21.5c-17.3 0-21.7.3-22.1 1.4zm72.3-.7c-.4.3-.7 20.4-.7 44.5v43.9l22.8-.3c22.3-.3 22.8-.3 28.5-3 14.6-6.9 23.3-18.8 25.6-35.1 1.9-13.9-2.7-27.7-12.6-37.6-6.8-6.7-14.3-10.6-23.3-12.1-7.2-1.1-39.3-1.4-40.3-.3zm44.6 15.7c5.7 2.5 12.2 9 14.8 14.9 3.2 7.1 3.4 20.1.3 26.8-3 6.4-7.7 11.4-13.6 14.3-4.8 2.4-6.2 2.6-18.5 2.6H759v-61.2l13.3.4c9.4.4 14.3 1 17 2.2zm54.7 28.1v44.7l22.3-.4 22.3-.3 7.5-3.7c16.7-8.3 25.9-24.4 24.6-43.3-1.1-17.7-11.6-32.3-27.7-38.7-4.9-2-7.7-2.2-27.2-2.6l-21.8-.4v44.7zm43-28.9c7.2 2.1 15 9.8 17.6 17.4 4.1 11.9 1.5 25.1-6.4 33.3-6.8 7-9.9 8.1-25.4 8.5l-13.7.4-.3-30.6-.3-30.6h11.6c7.6 0 13.3.5 16.9 1.6zm57.7-14.9c-.4.3-.7 20.4-.7 44.5V678h67v-14h-52v-61h52v-14h-32.8c-18.1 0-33.2.3-33.5.7zm96.3 43.8V678h15.1l-.3-31.5-.3-31.6 5.2 5.8 5.2 5.8.1 7.7v7.8l6.8.1h6.7l15.5 18 15.4 17.9h12.6v-89.1l-7.2.3-7.3.3-.5 31.5-.5 31.4-4.9-5.7-4.8-5.7H1081v-9.8l-.1-9.7-14.2-16.3-14.2-16.2H1041v44.5zm158-44c0 .4 7.9 20 17.5 43.6s17.5 43.4 17.5 43.9c0 .6 4.5 1 11.3 1l11.2-.1 4.9-12.5c2.7-6.8 5.2-12.1 5.6-11.7.4.5 2.8 6.1 5.4 12.5l4.8 11.8h21.4l17.3-42.4c9.5-23.3 17.5-43.3 17.8-44.5.5-2 .2-2.1-7-2.1-5 0-7.6.4-8 1.2-7 17.5-30 73.4-30.4 73.8-.7.8-2.1-2.1-8-16.8l-5.7-14.3 8.3-20.2c4.6-11.1 8.5-21 8.8-22 .5-1.6-.1-1.8-7.3-1.5l-7.8.3-5 12.2-4.9 12.2-5-12.5-5-12.4h-7.4c-5.5 0-7.3.3-7.3 1.4 0 .7 3.8 10.6 8.4 22l8.5 20.6-6.3 15.3c-3.4 8.3-6.6 15.1-7.1 15.1-.6-.1-7.8-16.8-16-37l-15.1-36.9-7.7-.3c-4.2-.2-7.7 0-7.7.3zm157 44V678h67.1l-.3-6.8-.3-6.7-26.2-.3-26.3-.2v-61h53.1l-.3-6.8-.3-6.7-33.2-.3-33.3-.2v44.5zm190.4-43.1c-.3.7-.4 3.8-.2 6.7l.3 5.4 14.8.3 14.7.3V678h14v-75h30v-14h-28.8l-4 4.5-3.9 4.4-4.3-4.4-4.4-4.5h-13.8c-10.8 0-14 .3-14.4 1.4zm89.6 1.1c0 2 .5 2.5 2.5 2.5 2.3 0 2.4.3 2.7 7.2.3 6.5.5 7.3 2.3 7.3 1.8 0 2-.8 2.3-7.2.3-7 .4-7.2 3-7.5 1.9-.2 2.7-.9 2.7-2.3 0-1.8-.8-2-7.7-2.3-7.8-.3-7.8-.3-7.8 2.3zm18 7.5c0 9.3.1 10 2 10 1.7 0 2-.7 2.1-5.3l.1-5.2 1.6 4.7c2.4 7.4 5.3 7.5 7.4.5l1.3-4.2.5 4.5c.4 3.7.9 4.5 2.5 4.5 1.9 0 2-.7 2-9.5v-9.5h-2.9c-2.7 0-3.1.5-4.9 6l-2.1 6-2-6.3c-1.8-5.7-2.2-6.2-4.8-6.2h-2.8v10z"/><path d="M974.7 626.7c-.4.3-.7 3.7-.7 7.5v6.8h19v-15h-8.8c-4.9 0-9.2.3-9.5.7zm411.3 6.8v7.5h19.1l-.3-7.3-.3-7.2-9.2-.3-9.3-.3v7.6z"/></g></svg>