<svg width="852" height="157" viewBox="0 0 852 157" fill="none" xmlns="http://www.w3.org/2000/svg">
<g filter="url(#filter0_d)">
<path fill-rule="evenodd" clip-rule="evenodd" d="M46.9226 134C64.2043 134 73.4852 123.778 73.4852 105.569C73.4852 91.6736 68.8447 82.7292 54.1233 69.7917C42.6021 59.7292 38.9218 53.8194 38.9218 45.6736C38.9218 38.0069 42.1221 34.9722 47.7226 34.9722C53.3232 34.9722 56.5235 38.0069 56.5235 45.9931V51.7431H73.1652V47.1111C73.1652 29.2222 64.6843 19 47.5626 19C30.4409 19 21.32 29.2222 21.32 46.7917C21.32 59.5694 26.1205 68.6736 40.842 81.6111C52.3631 91.6736 55.8834 97.5833 55.8834 106.847C55.8834 115.153 52.3631 118.028 46.7625 118.028C41.162 118.028 37.6416 115.153 37.6416 107.167V99.5H21V105.889C21 123.778 29.6409 134 46.9226 134ZM114.929 132.403V36.5694H133.331V20.5972H78.9257V36.5694H97.3275V132.403H114.929ZM146.132 132.403L149.333 110.521H169.335V110.201L172.535 132.403H190.137L171.895 20.5972H148.053L129.811 132.403H146.132ZM167.254 95.3472H151.413L159.094 40.0833H159.414L167.254 95.3472ZM225.02 132.403V84.8056L246.302 20.5972H229.181L217.179 61.6458H216.859L204.858 20.5972H186.136L207.418 84.8056V132.403H225.02ZM304.708 134C321.67 134 330.631 123.778 330.631 106.528V90.7153H313.989V107.806C313.989 115.153 310.469 118.028 305.188 118.028C299.908 118.028 296.387 115.153 296.387 107.806V45.3542C296.387 38.0069 299.908 34.9722 305.188 34.9722C310.469 34.9722 313.989 38.0069 313.989 45.3542V58.2917H330.631V46.4722C330.631 29.2222 321.67 19 304.708 19C287.746 19 278.785 29.2222 278.785 46.4722V106.528C278.785 123.778 287.746 134 304.708 134ZM366.954 134C384.236 134 393.677 123.778 393.677 105.889V47.1111C393.677 29.2222 384.236 19 366.954 19C349.672 19 340.232 29.2222 340.232 47.1111V105.889C340.232 123.778 349.672 134 366.954 134ZM366.954 118.028C361.354 118.028 357.833 114.993 357.833 107.007V45.9931C357.833 38.0069 361.354 34.9722 366.954 34.9722C372.555 34.9722 376.075 38.0069 376.075 45.9931V107.007C376.075 114.993 372.555 118.028 366.954 118.028ZM421.2 132.403V50.7847H421.52L442.642 132.403H460.723V20.5972H445.042V87.5208H444.722L427.6 20.5972H405.518V132.403H421.2ZM489.526 132.403V50.7847H489.846L510.968 132.403H529.05V20.5972H513.369V87.5208H513.049L495.927 20.5972H473.845V132.403H489.526ZM590.176 132.403V116.431H559.773V82.0903H583.936V66.1181H559.773V36.5694H590.176V20.5972H542.171V132.403H590.176ZM625.06 134C642.021 134 650.982 123.778 650.982 106.528V90.7153H634.341V107.806C634.341 115.153 630.82 118.028 625.54 118.028C620.259 118.028 616.739 115.153 616.739 107.806V45.3542C616.739 38.0069 620.259 34.9722 625.54 34.9722C630.82 34.9722 634.341 38.0069 634.341 45.3542V58.2917H650.982V46.4722C650.982 29.2222 642.021 19 625.06 19C608.098 19 599.137 29.2222 599.137 46.4722V106.528C599.137 123.778 608.098 134 625.06 134ZM692.906 132.403V36.5694H711.308V20.5972H656.903V36.5694H675.305V132.403H692.906ZM767.794 132.403V116.431H737.391V82.0903H761.553V66.1181H737.391V36.5694H767.794V20.5972H719.789V132.403H767.794ZM804.757 132.403C822.359 132.403 831 122.66 831 104.771V48.2292C831 30.3403 822.359 20.5972 804.757 20.5972H777.875V132.403H804.757ZM804.437 116.431H795.477V36.5694H804.437C810.038 36.5694 813.398 39.4444 813.398 47.4306V105.569C813.398 113.556 810.038 116.431 804.437 116.431Z" fill="#505050" fill-opacity="0.375847"/>
</g>
<defs>
<filter id="filter0_d" x="0" y="0" width="852" height="157" filterUnits="userSpaceOnUse" color-interpolation-filters="sRGB">
<feFlood flood-opacity="0" result="BackgroundImageFix"/>
<feColorMatrix in="SourceAlpha" type="matrix" values="0 0 0 0 0 0 0 0 0 0 0 0 0 0 0 0 0 0 127 0" result="hardAlpha"/>
<feOffset dy="2"/>
<feGaussianBlur stdDeviation="10.5"/>
<feColorMatrix type="matrix" values="0 0 0 0 0 0 0 0 0 0 0 0 0 0 0 0 0 0 0.663216 0"/>
<feBlend mode="normal" in2="BackgroundImageFix" result="effect1_dropShadow"/>
<feBlend mode="normal" in="SourceGraphic" in2="effect1_dropShadow" result="shape"/>
</filter>
</defs>
</svg>
