<svg width="18" height="15" viewBox="0 0 18 15" fill="none" xmlns="http://www.w3.org/2000/svg">
<path fill-rule="evenodd" clip-rule="evenodd" d="M15.8792 2.375C16.6421 1.90625 17.2295 1.16406 17.5041 0.28125C16.7908 0.714844 16.0013 1.03125 15.1583 1.19922C14.4832 0.460938 13.5219 0 12.4615 0C10.4209 0 8.76923 1.69531 8.76923 3.78516C8.76923 4.08203 8.79975 4.37109 8.86459 4.64844C5.79402 4.49219 3.07057 2.98438 1.25111 0.691406C0.93452 1.25 0.75143 1.90234 0.75143 2.59375C0.75143 3.90625 1.4075 5.06641 2.39924 5.74609C1.78894 5.73047 1.21678 5.55859 0.720916 5.27344C0.720916 5.28906 0.720916 5.30469 0.720916 5.32031C0.720916 7.15625 1.99491 8.68359 3.68468 9.03125C3.37572 9.11719 3.04768 9.16406 2.71202 9.16406C2.47552 9.16406 2.24285 9.14062 2.0178 9.09375C2.48697 10.5977 3.85251 11.6914 5.4698 11.7227C4.20725 12.7383 2.61284 13.3438 0.881119 13.3438C0.583598 13.3438 0.289892 13.3242 0 13.2891C1.62874 14.375 3.57025 15 5.65289 15C12.4539 15 16.1691 9.23047 16.1691 4.22656C16.1691 4.0625 16.1653 3.89844 16.1577 3.73828C16.8786 3.20312 17.5041 2.53906 18 1.77734C17.3363 2.07812 16.6268 2.28125 15.8792 2.375Z" fill="white"/>
</svg>
