<svg width="1235" height="216" viewBox="0 0 1235 216" fill="none" xmlns="http://www.w3.org/2000/svg">
<path fill-rule="evenodd" clip-rule="evenodd" d="M86.5 202.2C77.3 211.4 65.3 216 50.5 216C35.7 216 23.7 211.4 14.5 202.2C5.3 193 0.699997 181 0.699997 166.2V49.8C0.699997 35 5.3 23 14.5 13.8C23.7 4.6 35.7 0 50.5 0C65.3 0 77.3 4.6 86.5 13.8C95.7 23 100.3 35 100.3 49.8V74.4H69.1V49.8C69.1 43.8 67.4 39 64 35.4C60.6 31.8 56.2 30 50.8 30C45.4 30 41 31.8 37.6 35.4C34.2 39 32.5 43.8 32.5 49.8V166.2C32.5 172.2 34.2 177 37.6 180.6C41 184.2 45.4 186 50.8 186C56.2 186 60.6 184.2 64 180.6C67.4 177 69.1 172.2 69.1 166.2V136.2H100.3V166.2C100.3 181 95.7 193 86.5 202.2ZM161.2 121.5V213H129.4V3H161.2V91.5H199V3H230.8V213H199V121.5H161.2ZM287.2 213L294.1 166.5H328.3L335.2 213H367.6L332.8 3H290.2L255.4 213H287.2ZM311.2 48L298.3 135.9H324.1L311.2 48ZM424 213V126.3H440.5L463.6 213H496.6L469.9 119.1C476.9 114.9 482.3 109.1 486.1 101.7C489.9 94.3 491.8 85.8 491.8 76.2V53.1C491.8 37.9 487.3 25.75 478.3 16.65C469.3 7.55 457.2 3 442 3H392.2V213H424ZM424 96.3H440.5C446.7 96.3 451.5 94.6 454.9 91.2C458.3 87.8 460 83 460 76.8V52.5C460 46.3 458.3 41.5 454.9 38.1C451.5 34.7 446.7 33 440.5 33H424V96.3ZM544.3 213L551.2 166.5H585.4L592.3 213H624.7L589.9 3H547.3L512.5 213H544.3ZM555.4 135.9H581.2L568.3 48L555.4 135.9ZM696.1 216C710.9 216 722.9 211.4 732.1 202.2C741.3 193 745.9 181 745.9 166.2V136.2H714.7V166.2C714.7 172.2 713 177 709.6 180.6C706.2 184.2 701.8 186 696.4 186C691 186 686.6 184.2 683.2 180.6C679.8 177 678.1 172.2 678.1 166.2V49.8C678.1 43.8 679.8 39 683.2 35.4C686.6 31.8 691 30 696.4 30C701.8 30 706.2 31.8 709.6 35.4C713 39 714.7 43.8 714.7 49.8V74.4H745.9V49.8C745.9 35 741.3 23 732.1 13.8C722.9 4.6 710.9 0 696.1 0C681.3 0 669.3 4.6 660.1 13.8C650.9 23 646.3 35 646.3 49.8V166.2C646.3 181 650.9 193 660.1 202.2C669.3 211.4 681.3 216 696.1 216ZM832.6 33V213H800.8V33H766V3H867.4V33H832.6ZM982.3 213V183H923.8V121.5H970.3V91.5H923.8V33H982.3V3H892V213H982.3ZM1040.8 126.3V213H1009V3H1058.8C1074 3 1086.1 7.55 1095.1 16.65C1104.1 25.75 1108.6 37.9 1108.6 53.1V76.2C1108.6 85.8 1106.7 94.3 1102.9 101.7C1099.1 109.1 1093.7 114.9 1086.7 119.1L1113.4 213H1080.4L1057.3 126.3H1040.8ZM1057.3 96.3H1040.8V33H1057.3C1063.5 33 1068.3 34.7 1071.7 38.1C1075.1 41.5 1076.8 46.3 1076.8 52.5V76.8C1076.8 83 1075.1 87.8 1071.7 91.2C1068.3 94.6 1063.5 96.3 1057.3 96.3ZM1210.3 209.4C1202.5 213.8 1193.6 216 1183.6 216C1173.6 216 1164.7 213.8 1156.9 209.4C1149.1 205 1143.05 198.9 1138.75 191.1C1134.45 183.3 1132.3 174.4 1132.3 164.4V156.9L1162.9 153.6V161.4C1162.9 169 1164.7 175 1168.3 179.4C1171.9 183.8 1176.9 186 1183.3 186C1189.5 186 1194.45 184.2 1198.15 180.6C1201.85 177 1203.7 172.1 1203.7 165.9C1203.7 159.1 1201.75 152.6 1197.85 146.4C1193.95 140.2 1186.2 131.6 1174.6 120.6C1159 105.8 1148.35 93.5 1142.65 83.7C1136.95 73.9 1134.1 63.2 1134.1 51.6C1134.1 35.8 1138.4 23.25 1147 13.95C1155.6 4.65 1167.4 0 1182.4 0C1197.4 0 1209.2 4.7 1217.8 14.1C1226.4 23.5 1230.7 36.1 1230.7 51.9V57.3L1200.1 60.6V54.6C1200.1 46.6 1198.6 40.5 1195.6 36.3C1192.6 32.1 1188.3 30 1182.7 30C1177.1 30 1172.8 31.7 1169.8 35.1C1166.8 38.5 1165.3 43.5 1165.3 50.1C1165.3 56.7 1167.3 63.05 1171.3 69.15C1175.3 75.25 1183 84 1194.4 95.4C1210 111 1220.65 123.55 1226.35 133.05C1232.05 142.55 1234.9 153 1234.9 164.4C1234.9 174.4 1232.75 183.3 1228.45 191.1C1224.15 198.9 1218.1 205 1210.3 209.4Z" fill="url(#paint0_linear)"/>
<path fill-rule="evenodd" clip-rule="evenodd" d="M86.5 202.2C77.3 211.4 65.3 216 50.5 216C35.7 216 23.7 211.4 14.5 202.2C5.3 193 0.699997 181 0.699997 166.2V49.8C0.699997 35 5.3 23 14.5 13.8C23.7 4.6 35.7 0 50.5 0C65.3 0 77.3 4.6 86.5 13.8C95.7 23 100.3 35 100.3 49.8V74.4H69.1V49.8C69.1 43.8 67.4 39 64 35.4C60.6 31.8 56.2 30 50.8 30C45.4 30 41 31.8 37.6 35.4C34.2 39 32.5 43.8 32.5 49.8V166.2C32.5 172.2 34.2 177 37.6 180.6C41 184.2 45.4 186 50.8 186C56.2 186 60.6 184.2 64 180.6C67.4 177 69.1 172.2 69.1 166.2V136.2H100.3V166.2C100.3 181 95.7 193 86.5 202.2ZM161.2 121.5V213H129.4V3H161.2V91.5H199V3H230.8V213H199V121.5H161.2ZM287.2 213L294.1 166.5H328.3L335.2 213H367.6L332.8 3H290.2L255.4 213H287.2ZM311.2 48L298.3 135.9H324.1L311.2 48ZM424 213V126.3H440.5L463.6 213H496.6L469.9 119.1C476.9 114.9 482.3 109.1 486.1 101.7C489.9 94.3 491.8 85.8 491.8 76.2V53.1C491.8 37.9 487.3 25.75 478.3 16.65C469.3 7.55 457.2 3 442 3H392.2V213H424ZM424 96.3H440.5C446.7 96.3 451.5 94.6 454.9 91.2C458.3 87.8 460 83 460 76.8V52.5C460 46.3 458.3 41.5 454.9 38.1C451.5 34.7 446.7 33 440.5 33H424V96.3ZM544.3 213L551.2 166.5H585.4L592.3 213H624.7L589.9 3H547.3L512.5 213H544.3ZM555.4 135.9H581.2L568.3 48L555.4 135.9ZM696.1 216C710.9 216 722.9 211.4 732.1 202.2C741.3 193 745.9 181 745.9 166.2V136.2H714.7V166.2C714.7 172.2 713 177 709.6 180.6C706.2 184.2 701.8 186 696.4 186C691 186 686.6 184.2 683.2 180.6C679.8 177 678.1 172.2 678.1 166.2V49.8C678.1 43.8 679.8 39 683.2 35.4C686.6 31.8 691 30 696.4 30C701.8 30 706.2 31.8 709.6 35.4C713 39 714.7 43.8 714.7 49.8V74.4H745.9V49.8C745.9 35 741.3 23 732.1 13.8C722.9 4.6 710.9 0 696.1 0C681.3 0 669.3 4.6 660.1 13.8C650.9 23 646.3 35 646.3 49.8V166.2C646.3 181 650.9 193 660.1 202.2C669.3 211.4 681.3 216 696.1 216ZM832.6 33V213H800.8V33H766V3H867.4V33H832.6ZM982.3 213V183H923.8V121.5H970.3V91.5H923.8V33H982.3V3H892V213H982.3ZM1040.8 126.3V213H1009V3H1058.8C1074 3 1086.1 7.55 1095.1 16.65C1104.1 25.75 1108.6 37.9 1108.6 53.1V76.2C1108.6 85.8 1106.7 94.3 1102.9 101.7C1099.1 109.1 1093.7 114.9 1086.7 119.1L1113.4 213H1080.4L1057.3 126.3H1040.8ZM1057.3 96.3H1040.8V33H1057.3C1063.5 33 1068.3 34.7 1071.7 38.1C1075.1 41.5 1076.8 46.3 1076.8 52.5V76.8C1076.8 83 1075.1 87.8 1071.7 91.2C1068.3 94.6 1063.5 96.3 1057.3 96.3ZM1210.3 209.4C1202.5 213.8 1193.6 216 1183.6 216C1173.6 216 1164.7 213.8 1156.9 209.4C1149.1 205 1143.05 198.9 1138.75 191.1C1134.45 183.3 1132.3 174.4 1132.3 164.4V156.9L1162.9 153.6V161.4C1162.9 169 1164.7 175 1168.3 179.4C1171.9 183.8 1176.9 186 1183.3 186C1189.5 186 1194.45 184.2 1198.15 180.6C1201.85 177 1203.7 172.1 1203.7 165.9C1203.7 159.1 1201.75 152.6 1197.85 146.4C1193.95 140.2 1186.2 131.6 1174.6 120.6C1159 105.8 1148.35 93.5 1142.65 83.7C1136.95 73.9 1134.1 63.2 1134.1 51.6C1134.1 35.8 1138.4 23.25 1147 13.95C1155.6 4.65 1167.4 0 1182.4 0C1197.4 0 1209.2 4.7 1217.8 14.1C1226.4 23.5 1230.7 36.1 1230.7 51.9V57.3L1200.1 60.6V54.6C1200.1 46.6 1198.6 40.5 1195.6 36.3C1192.6 32.1 1188.3 30 1182.7 30C1177.1 30 1172.8 31.7 1169.8 35.1C1166.8 38.5 1165.3 43.5 1165.3 50.1C1165.3 56.7 1167.3 63.05 1171.3 69.15C1175.3 75.25 1183 84 1194.4 95.4C1210 111 1220.65 123.55 1226.35 133.05C1232.05 142.55 1234.9 153 1234.9 164.4C1234.9 174.4 1232.75 183.3 1228.45 191.1C1224.15 198.9 1218.1 205 1210.3 209.4Z" fill="black" fill-opacity="0.666084"/>
<defs>
<linearGradient id="paint0_linear" x1="0.699997" y1="0" x2="0.699997" y2="216" gradientUnits="userSpaceOnUse">
<stop stop-color="#2D2D2D"/>
<stop offset="1" stop-color="#A3A3A3"/>
</linearGradient>
</defs>
</svg>
