<?xml version="1.0" standalone="no"?>
<!DOCTYPE svg PUBLIC "-//W3C//DTD SVG 20010904//EN"
 "http://www.w3.org/TR/2001/REC-SVG-20010904/DTD/svg10.dtd">
<svg version="1.0" xmlns="http://www.w3.org/2000/svg"
 width="1890.000000pt" height="680.000000pt" viewBox="0 0 1890.000000 680.000000"
 preserveAspectRatio="xMidYMid meet">
<metadata>
Created by potrace 1.16, written by Peter Selinger 2001-2019
</metadata>
<g transform="translate(0.000000,680.000000) scale(0.100000,-0.100000)"
fill="#ffffff" stroke="none">
<path d="M2383 6781 c-7 -12 -13 -29 -13 -38 -1 -17 -1 -17 -14 0 -15 20 -32
22 -39 5 -3 -7 -6 -1 -6 15 -1 15 -4 27 -8 27 -15 -1 -53 -48 -53 -66 0 -13
-6 -8 -16 14 -19 37 -34 41 -41 11 l-6 -22 -17 23 -18 23 -6 -21 c-4 -12 -12
-22 -17 -22 -5 0 -9 -11 -9 -24 0 -13 -6 -28 -13 -34 -7 -6 -14 -30 -15 -52
-2 -23 -8 -53 -15 -68 -14 -32 -23 -799 -12 -1070 6 -142 10 -172 21 -168 8 3
14 1 14 -4 0 -6 -7 -10 -16 -10 -15 0 -16 -11 -8 -102 5 -57 9 -257 9 -445 l0
-342 -70 0 c-38 0 -106 0 -150 1 -150 3 -513 -2 -576 -8 -103 -9 -242 -4 -255
9 -4 3 -15 2 -25 -4 -11 -6 -19 -6 -19 0 0 15 -33 22 -42 9 -6 -10 -10 -10
-18 2 -6 9 -13 11 -18 5 -7 -10 -48 -35 -57 -35 -3 0 -5 7 -5 15 0 19 -19 19
-60 -1 -27 -14 -34 -14 -41 -3 -6 10 -23 -2 -69 -50 -33 -35 -60 -66 -60 -70
0 -3 -45 -51 -101 -106 l-101 -100 7 100 c3 55 8 132 10 170 2 39 5 270 7 513
l3 444 -25 19 c-14 11 -36 28 -48 39 -28 24 -70 26 -98 5 -28 -21 -37 -18 -30
10 7 26 -3 32 -21 14 -8 -8 -13 -5 -18 10 -7 24 -45 29 -45 5 0 -8 -5 -12 -10
-9 -15 9 -50 -4 -50 -19 0 -9 -9 -12 -25 -8 -16 3 -26 -1 -29 -9 -2 -8 -9 -32
-16 -54 -14 -49 -17 -163 -21 -980 -3 -587 4 -1025 17 -1046 3 -5 2 -9 -3 -9
-13 0 -7 -164 7 -190 21 -40 55 -67 83 -67 15 0 30 3 33 8 2 4 16 4 30 -1 33
-13 34 -13 34 4 0 7 13 19 29 26 23 9 33 9 50 -2 17 -10 23 -10 29 -1 5 8 13
9 22 3 23 -15 33 -12 26 7 -4 10 -4 15 -1 11 4 -4 17 3 30 14 22 19 29 64 25
158 -1 8 -2 73 -4 144 -3 145 -13 119 88 234 25 29 46 59 46 66 0 7 11 26 24
41 14 16 23 32 20 36 -2 4 6 11 18 14 13 4 55 39 94 79 123 122 153 146 184
146 16 0 31 3 34 8 5 8 94 8 258 -3 62 -3 205 -2 318 4 359 19 590 22 591 8 1
-7 1 -101 0 -209 -1 -109 2 -198 7 -198 11 0 16 -126 5 -143 -12 -18 -14 -57
-19 -315 -4 -177 -2 -237 7 -249 10 -11 10 -16 1 -22 -12 -7 -9 -180 4 -270 4
-31 3 -42 -5 -37 -6 4 -11 2 -11 -3 0 -6 5 -11 10 -11 6 0 10 -7 10 -16 0 -8
-4 -12 -10 -9 -5 3 -10 1 -10 -4 0 -6 6 -11 13 -11 8 0 7 -4 -3 -11 -11 -8
-12 -12 -2 -16 6 -2 12 -16 12 -29 0 -13 -6 -24 -12 -24 -10 0 -9 -3 1 -9 11
-7 11 -10 0 -15 -11 -5 -11 -7 -1 -12 14 -7 17 -34 3 -34 -11 0 -8 -140 3
-158 4 -7 2 -12 -4 -12 -6 0 -8 -5 -5 -11 4 -6 7 -57 6 -115 -1 -66 2 -104 9
-104 5 0 10 -15 10 -32 0 -78 9 -207 18 -253 5 -27 8 -53 6 -57 -3 -4 4 -13
15 -20 14 -8 17 -16 10 -24 -7 -8 -2 -11 16 -11 14 0 25 3 25 8 0 5 9 4 20 -3
11 -7 20 -18 20 -25 0 -7 7 -13 15 -13 8 0 15 -4 15 -10 0 -5 7 -10 15 -10 8
0 15 4 15 9 0 5 8 7 19 4 10 -3 22 0 25 5 3 6 16 8 28 4 17 -4 20 -2 15 11 -9
23 23 38 62 31 32 -7 68 17 56 36 -3 5 1 10 10 10 9 0 13 5 10 10 -3 6 -2 10
3 10 5 0 9 7 9 15 0 8 -6 15 -14 15 -16 0 -17 32 -1 48 9 9 10 15 2 20 -8 5
-9 28 -2 77 12 96 17 195 9 195 -8 0 -8 184 1 190 4 3 0 20 -9 39 -10 20 -13
35 -7 39 13 9 18 182 7 182 -5 0 -5 35 -1 78 10 91 7 1092 -3 1140 -5 25 -4
32 8 32 12 0 13 3 4 13 -6 8 -8 17 -4 20 3 4 2 7 -4 7 -8 0 -8 10 0 36 7 25 8
38 0 42 -6 4 -7 16 -3 27 4 11 4 34 0 52 -5 21 -4 34 4 36 8 3 8 8 0 17 -7 6
-10 20 -7 30 4 13 20 19 71 25 98 11 371 14 423 5 26 -5 48 -5 54 1 12 12 45
12 45 -1 0 -5 5 -10 10 -10 6 0 10 7 10 15 0 14 11 19 37 16 7 -1 15 10 19 24
3 14 10 25 15 25 5 0 7 18 4 40 -4 31 -1 40 10 40 8 0 15 5 15 10 0 6 -4 10
-10 10 -5 0 -10 4 -10 10 0 5 7 7 15 4 8 -4 15 -1 15 5 0 6 6 11 14 11 12 0
19 17 32 83 6 27 -13 41 -91 67 -77 26 -207 32 -257 12 -15 -6 -30 -8 -32 -3
-9 13 -149 12 -158 -2 -6 -9 -8 -8 -8 2 0 9 -4 10 -12 4 -15 -10 -24 -10 -53
2 -11 5 -38 8 -60 8 -89 -3 -82 -21 -78 219 2 117 3 317 2 443 -1 263 -1 454
0 778 1 134 -3 235 -9 246 -5 10 -9 92 -9 182 1 504 1 499 -21 499 -13 0 -20
-7 -20 -20 0 -25 -29 -27 -32 -2 0 9 -2 22 -2 29 -2 22 -16 27 -16 5 0 -11 -3
-28 -7 -38 -5 -14 -9 -9 -17 20 -10 35 -12 36 -23 17z"/>
<path d="M16649 6618 c-1 -7 -1 -16 0 -20 0 -4 -6 -5 -14 -2 -9 4 -15 0 -15
-7 0 -11 -3 -11 -10 1 -9 13 -11 13 -19 1 -7 -11 -22 -12 -62 -8 -45 6 -55 4
-71 -15 -10 -12 -16 -28 -14 -35 3 -7 0 -12 -6 -10 -6 1 -12 -7 -13 -18 -1
-11 -4 -24 -5 -30 -2 -5 3 -32 11 -60 11 -36 13 -78 9 -153 -3 -56 -1 -102 4
-102 5 0 3 -6 -3 -14 -7 -9 -8 -17 -2 -20 11 -7 10 -105 -2 -123 -4 -6 -3 -14
3 -18 6 -4 7 -11 4 -17 -7 -11 -7 -75 -1 -401 2 -92 0 -170 -5 -173 -5 -4 -6
-13 -2 -23 15 -36 23 -399 9 -424 -7 -13 -6 -20 5 -27 8 -5 10 -10 4 -10 -6 0
-11 -11 -11 -25 0 -14 3 -25 8 -25 5 0 7 -88 6 -195 -2 -225 13 -203 -137
-203 -52 0 -99 -1 -105 -3 -5 -2 -20 0 -32 5 -12 4 -31 2 -42 -3 -14 -8 -21
-8 -24 2 -4 8 -8 9 -14 1 -4 -6 -24 -11 -43 -11 -19 0 -38 5 -42 11 -6 8 -11
7 -17 -3 -6 -10 -18 -12 -37 -6 -16 3 -67 8 -114 9 -72 1 -87 -1 -98 -16 -7
-10 -20 -18 -27 -18 -11 0 -13 -10 -11 -37 5 -56 14 -72 37 -66 13 4 19 0 19
-11 0 -9 -8 -16 -19 -16 -11 0 -23 -4 -26 -10 -3 -5 0 -10 8 -10 20 0 27 -33
10 -48 -7 -7 -13 -17 -13 -22 0 -9 31 -15 54 -11 4 1 14 -3 20 -9 7 -5 16 -7
19 -3 4 3 7 1 7 -6 0 -9 10 -12 30 -9 20 3 30 0 30 -9 0 -7 -10 -13 -22 -13
-34 0 -68 -11 -68 -22 0 -5 6 -8 13 -7 44 5 87 -2 87 -16 0 -8 -4 -15 -8 -15
-5 0 -9 -7 -9 -15 0 -8 5 -11 10 -8 5 3 13 -1 18 -8 5 -8 25 -13 51 -13 110 1
184 7 196 16 8 7 12 7 12 0 0 -6 42 -10 105 -11 58 -1 112 -4 120 -7 8 -4 15
-1 15 5 0 17 50 13 56 -4 9 -22 35 -19 28 3 -4 13 -2 12 7 -3 27 -42 36 -45
48 -18 11 24 13 25 31 8 10 -9 24 -14 29 -10 6 3 11 -1 11 -9 0 -9 -5 -16 -12
-16 -9 0 -9 -3 -1 -11 9 -9 16 -8 27 3 8 9 12 18 9 22 -8 8 -4 8 35 -3 30 -9
31 -8 22 10 -8 15 -7 19 5 19 8 0 15 -7 15 -16 0 -11 5 -14 16 -10 9 3 20 6
26 6 6 0 8 7 5 15 -4 8 -1 17 5 21 6 4 8 3 5 -3 -15 -24 67 -30 90 -7 10 10
25 13 40 9 28 -7 58 16 41 33 -6 6 -6 12 1 16 6 4 11 14 11 22 0 8 -4 13 -9 9
-5 -3 -12 -1 -15 4 -4 5 2 11 11 13 16 3 15 6 -7 28 -20 20 -24 34 -24 88 -1
35 3 66 7 69 5 3 6 11 3 19 -3 7 -1 16 4 19 6 4 10 1 10 -5 0 -27 23 -1 25 27
2 28 -1 32 -23 35 -18 2 -28 11 -33 31 -4 15 -4 27 1 27 4 0 10 9 13 20 3 11
1 20 -4 20 -4 0 -6 7 -3 15 4 8 1 15 -5 15 -6 0 -11 5 -11 11 0 5 5 7 10 4 11
-7 14 8 3 19 -12 12 -14 49 -2 57 8 5 8 12 -1 28 -9 17 -9 26 0 36 7 8 9 19 5
25 -3 5 1 20 9 32 14 19 16 19 22 5 3 -9 15 -17 26 -17 11 0 22 -8 25 -20 3
-11 9 -20 14 -20 5 0 9 -7 9 -16 0 -10 6 -14 15 -10 9 3 15 0 15 -9 0 -8 7
-15 15 -15 8 0 15 -4 15 -9 0 -11 181 -191 192 -191 5 0 8 -4 8 -10 0 -5 17
-25 38 -45 20 -19 31 -35 25 -35 -7 0 -13 -7 -13 -16 0 -11 6 -14 20 -9 11 4
20 2 20 -4 0 -6 -3 -10 -7 -10 -23 4 -24 -3 -3 -21 13 -11 29 -20 37 -20 7 0
13 -4 13 -10 0 -5 -4 -10 -10 -10 -5 0 -10 -4 -10 -10 0 -5 6 -10 13 -10 6 0
21 -14 32 -30 11 -17 26 -28 34 -25 8 3 11 0 8 -9 -5 -11 0 -13 24 -6 26 8 29
7 24 -9 -4 -14 1 -20 22 -26 28 -7 73 -42 73 -57 0 -12 37 -47 44 -41 3 3 12
-2 21 -11 9 -9 13 -16 8 -16 -4 0 4 -8 18 -18 15 -10 24 -23 21 -32 -3 -8 -1
-12 3 -8 4 4 16 3 27 -3 18 -9 18 -12 4 -22 -12 -9 -13 -16 -5 -27 8 -11 12
-12 16 -2 7 18 23 14 16 -5 -4 -11 -3 -14 5 -9 7 4 12 2 12 -5 0 -6 8 -9 20
-6 13 3 20 0 20 -9 0 -8 5 -14 10 -14 6 0 20 -9 32 -20 12 -11 18 -20 14 -20
-4 0 7 -13 23 -28 25 -23 29 -30 19 -41 -11 -10 -9 -12 7 -9 17 2 20 -2 19
-29 -1 -18 2 -33 7 -33 6 0 21 -11 34 -24 14 -14 33 -30 42 -35 15 -9 15 -12
4 -20 -8 -5 -9 -11 -3 -15 6 -3 12 0 14 6 5 15 78 -36 78 -54 0 -5 -9 0 -19
13 -11 14 -23 20 -28 15 -4 -5 -2 -11 5 -13 6 -3 12 -9 12 -15 0 -11 12 -24
52 -55 38 -28 143 -164 122 -156 -12 4 -15 3 -10 -5 4 -7 13 -12 20 -12 8 0
20 -8 27 -17 10 -11 10 -14 2 -9 -17 9 -16 -4 1 -26 17 -23 30 -23 21 0 -3 9
9 2 29 -17 19 -19 33 -38 30 -42 -7 -12 44 -62 55 -54 6 3 11 -1 11 -9 0 -9 7
-16 15 -16 8 0 15 -4 15 -9 0 -5 9 -13 20 -16 11 -3 27 -13 35 -22 13 -12 18
-13 31 -3 12 11 13 10 9 -2 -6 -16 20 -32 36 -22 5 3 9 0 9 -5 0 -6 4 -11 10
-11 5 0 24 -16 43 -35 19 -19 39 -35 44 -35 6 0 16 -7 23 -15 10 -12 16 -13
26 -4 11 9 18 9 28 0 11 -9 15 -8 20 5 3 9 4 19 2 23 -10 16 -17 101 -9 101 5
0 7 30 5 66 -3 36 1 91 7 122 6 31 13 102 15 158 1 55 5 105 9 111 4 6 3 13
-3 15 -6 2 -6 16 1 42 6 22 9 56 7 78 -2 21 1 38 5 38 5 0 5 6 0 13 -6 6 -11
34 -12 62 -1 27 -7 55 -12 61 -7 8 -6 13 1 16 13 4 15 75 6 198 -3 51 -1 77 7
82 8 5 6 13 -7 27 -11 12 -14 21 -9 21 6 0 10 19 10 43 0 23 3 69 7 102 11 88
14 455 4 455 -5 0 -6 5 -3 11 6 9 18 131 17 169 -6 156 -6 234 -2 277 5 41 2
57 -12 75 -10 13 -18 31 -18 41 0 21 -18 23 -26 2 -4 -8 -11 -12 -17 -8 -6 4
-8 0 -4 -10 3 -10 2 -17 -3 -17 -5 0 -12 9 -15 20 -6 20 -25 28 -25 12 0 -5
-15 -8 -32 -6 -38 3 -101 -6 -94 -13 6 -6 -44 -53 -56 -53 -5 0 -6 5 -2 12 5
8 2 9 -9 5 -9 -3 -19 -2 -22 3 -4 6 -11 10 -16 10 -6 0 -7 -4 -4 -10 3 -5 -1
-10 -9 -10 -9 0 -16 -5 -16 -11 0 -6 -7 -9 -15 -5 -29 11 -46 -5 -40 -34 3
-16 1 -31 -4 -35 -15 -8 -14 -45 0 -45 8 0 8 -4 0 -13 -12 -15 -11 -107 1
-107 4 0 6 -18 5 -40 -1 -25 -6 -40 -14 -40 -7 0 -13 -7 -13 -15 0 -8 6 -15
13 -15 10 0 13 -14 11 -50 -2 -33 2 -50 9 -50 9 0 9 -2 0 -8 -12 -8 -13 -75
-1 -88 7 -6 3 -79 -8 -163 -4 -30 -2 -46 7 -52 10 -6 10 -11 1 -21 -6 -8 -11
-28 -11 -44 2 -35 -9 -417 -12 -424 -1 -3 -1 -9 0 -14 2 -8 3 -171 2 -204 -1
-15 -26 -11 -26 4 0 10 -11 25 -65 82 -19 20 -39 37 -44 37 -5 0 -14 8 -20 18
-6 10 -50 58 -98 107 -49 49 -88 94 -88 100 0 5 -5 10 -11 10 -14 0 -40 26
-33 33 3 3 -4 8 -15 12 -12 3 -21 12 -21 19 0 7 -16 27 -35 46 -19 19 -35 31
-35 27 0 -4 -24 17 -53 45 -71 70 -153 140 -182 155 -27 15 -39 40 -22 46 16
6 7 14 -18 19 -11 1 -22 12 -25 22 -3 11 -14 24 -25 30 -31 18 -42 30 -37 44
2 6 -3 12 -10 12 -8 0 -27 23 -43 51 -17 29 -77 94 -137 151 -60 55 -108 106
-108 115 0 8 -4 12 -9 9 -4 -3 -33 20 -64 52 -67 68 -131 122 -147 122 -6 0
-8 5 -5 10 3 6 0 10 -7 10 -14 0 -85 77 -93 101 -3 9 -17 21 -31 28 -15 6 -24
15 -20 18 3 3 -2 12 -12 20 -16 12 -16 13 1 7 12 -5 17 -1 17 14 0 11 -4 22
-9 24 -4 2 -4 39 2 83 6 49 6 80 0 82 -5 2 -8 32 -7 68 2 36 -1 67 -6 70 -5 3
-5 17 0 31 6 14 8 29 6 33 -3 4 -6 68 -7 142 -1 74 -7 166 -13 204 -7 39 -11
140 -10 225 2 170 -1 190 -22 190 -8 0 -14 7 -14 15 0 8 -8 16 -17 16 -73 6
-91 7 -114 8 -18 1 -28 8 -32 21 -6 22 -26 27 -28 8z"/>
<path d="M9410 6406 c0 -8 6 -17 13 -19 6 -3 -1 -6 -16 -6 -16 -1 -26 -5 -22
-11 3 -5 -2 -10 -12 -10 -10 0 -28 -15 -39 -33 -21 -31 -58 -48 -47 -22 6 17
-29 29 -39 13 -4 -7 -6 -21 -4 -30 2 -11 -2 -18 -11 -18 -8 0 -12 -4 -9 -9 3
-5 -2 -8 -12 -7 -12 1 -17 -6 -16 -24 1 -14 -3 -28 -8 -31 -5 -3 -10 -14 -12
-23 -1 -10 -7 -21 -13 -24 -5 -4 -13 -21 -16 -38 -7 -38 16 -80 78 -138 181
-171 198 -186 221 -186 13 0 24 5 24 11 0 6 8 8 18 5 21 -6 66 29 56 45 -4 8
-3 9 4 5 6 -4 19 3 29 15 10 12 46 52 81 87 34 36 62 69 62 74 0 4 4 8 9 8 5
0 7 9 4 20 -3 12 1 22 11 26 24 9 20 23 -9 30 -14 3 -22 10 -19 16 3 5 1 14
-5 21 -5 7 -12 24 -14 38 -5 25 -90 119 -108 119 -5 0 -9 4 -9 8 0 11 -60 45
-67 38 -3 -3 -24 10 -46 29 -44 38 -57 43 -57 21z"/>
<path d="M9375 5474 c-14 -11 -16 -18 -7 -21 6 -3 9 -9 6 -15 -4 -5 -16 0 -30
13 -20 19 -27 20 -52 10 -27 -11 -28 -15 -26 -69 2 -31 2 -169 2 -307 -1 -137
-1 -491 0 -785 1 -294 1 -618 1 -720 0 -102 0 -192 0 -200 2 -159 -1 -264 -9
-345 -7 -66 -7 -102 0 -109 5 -5 10 -18 10 -28 0 -10 5 -18 10 -18 6 0 10 -6
10 -13 0 -16 32 -44 76 -64 19 -9 39 -29 46 -44 11 -24 17 -27 60 -26 46 0 66
15 52 38 -3 5 5 13 18 19 36 15 61 38 53 49 -3 6 -1 11 4 11 6 0 11 9 11 20 0
11 6 20 13 20 6 0 19 11 29 24 21 29 33 202 17 243 -13 33 -19 93 -9 93 8 0
19 58 25 133 3 26 1 47 -4 47 -4 0 -7 26 -6 58 2 31 4 143 5 249 1 105 5 193
8 195 4 2 4 66 1 143 -12 254 -11 763 2 771 7 4 7 9 1 13 -9 6 -26 337 -23
459 1 55 -13 97 -29 87 -5 -3 -19 4 -31 16 -23 23 -98 33 -131 17 -12 -5 -22
0 -40 22 -26 34 -35 36 -63 14z"/>
<path d="M6773 5455 c-9 -9 -28 -13 -60 -10 -29 2 -51 -1 -55 -8 -11 -17 -10
-29 2 -22 6 3 7 -1 4 -9 -3 -9 -13 -16 -21 -16 -8 0 -11 5 -7 13 5 9 4 9 -6 0
-17 -16 -22 -43 -8 -43 6 0 6 -6 -2 -14 -8 -10 -11 -58 -10 -148 2 -210 1
-337 -3 -423 -7 -128 17 -257 50 -269 8 -3 12 -10 8 -16 -5 -8 50 -8 80 1 6 1
32 -1 59 -6 34 -5 55 -4 69 4 13 9 17 9 12 1 -7 -11 30 -50 46 -50 5 0 11 12
15 28 9 41 12 49 13 30 1 -10 6 -18 11 -18 6 0 10 42 10 105 0 71 4 105 11
105 6 0 9 9 6 20 -3 11 -1 18 4 14 11 -7 10 38 -4 97 -5 26 -6 55 -2 65 5 11
7 23 6 28 -1 4 4 15 11 23 7 9 8 17 2 21 -8 6 -10 27 -4 42 1 3 3 13 5 23 2
11 6 22 10 25 9 10 557 7 584 -2 18 -7 22 -6 16 3 -6 10 -3 11 15 1 12 -6 31
-10 41 -7 10 3 19 1 19 -5 0 -6 13 -7 31 -3 42 9 95 9 111 -1 7 -5 25 -7 40
-5 16 1 28 -2 28 -7 0 -5 27 -12 59 -14 33 -2 67 -10 76 -18 9 -8 26 -14 37
-15 11 -1 23 -6 26 -12 4 -5 14 -13 22 -16 11 -4 10 -6 -4 -6 -15 -1 -16 -4
-6 -16 17 -20 30 -19 30 3 1 27 30 -32 32 -65 1 -15 5 -33 9 -38 10 -14 6
-175 -4 -175 -5 0 -5 -9 -2 -20 4 -13 1 -22 -9 -26 -9 -3 -16 -16 -16 -28 0
-36 -104 -120 -201 -163 -71 -32 -80 -34 -126 -27 -39 6 -42 8 -26 19 22 16
12 29 -15 21 -11 -4 -19 -14 -18 -24 1 -13 -6 -16 -26 -14 -20 2 -28 -2 -28
-13 0 -8 -4 -15 -10 -15 -5 0 -10 -14 -10 -31 0 -20 -4 -28 -11 -23 -9 5 -10
-9 -7 -49 3 -43 2 -54 -9 -50 -7 3 -13 1 -13 -5 0 -6 5 -12 11 -14 6 -2 11
-19 10 -38 -2 -87 1 -135 10 -138 14 -5 11 -52 -3 -52 -9 0 -8 -4 2 -10 12 -8
13 -13 3 -30 -16 -24 -17 -33 -3 -25 6 4 10 -8 10 -29 0 -20 -5 -36 -11 -36
-8 0 -8 -4 -1 -12 6 -7 9 -49 8 -93 l-1 -80 51 -51 c28 -28 62 -54 75 -57 13
-4 52 -33 86 -64 82 -77 96 -88 117 -96 9 -4 14 -11 11 -17 -3 -5 2 -10 12
-10 10 -1 38 -19 62 -41 24 -22 36 -37 25 -33 -17 6 -16 4 3 -15 12 -11 26
-21 30 -20 21 3 33 -2 33 -16 0 -9 6 -12 16 -8 10 4 17 -1 21 -16 3 -11 9 -18
14 -15 5 3 9 0 9 -5 0 -6 7 -11 15 -11 8 0 15 -5 15 -11 0 -5 4 -7 10 -4 6 4
7 -1 3 -11 -4 -12 -3 -15 5 -10 7 4 12 2 12 -3 0 -6 6 -11 13 -11 18 0 57 -34
57 -49 0 -6 6 -11 14 -11 8 0 16 -7 20 -15 3 -8 14 -15 25 -15 10 0 32 -7 47
-15 24 -12 26 -15 9 -16 -15 0 -11 -5 14 -15 18 -8 40 -13 47 -10 7 3 16 1 19
-4 8 -12 55 -13 55 -1 0 9 69 -12 104 -32 19 -11 206 -18 206 -8 0 3 -8 14
-17 25 -16 19 -16 19 -1 7 23 -17 39 -5 32 25 -4 16 -2 24 6 24 9 0 10 3 1 14
-6 7 -9 20 -6 28 4 10 -1 17 -15 21 -12 3 -24 15 -27 26 -3 12 -20 25 -46 33
-22 7 -42 20 -45 28 -3 13 -2 13 8 0 10 -13 11 -12 6 3 -3 10 -6 21 -6 23 0 2
-9 4 -20 4 -11 0 -20 4 -20 10 0 14 -42 50 -52 44 -5 -3 -7 -2 -6 3 5 16 -41
65 -53 57 -8 -5 -9 -3 -4 6 8 13 -34 55 -66 65 -10 4 -18 12 -16 18 1 7 -4 11
-10 9 -7 -1 -13 3 -13 10 0 16 -49 58 -67 58 -8 0 -11 5 -8 11 4 6 -2 13 -14
16 -11 3 -18 9 -16 14 7 10 -30 31 -40 21 -3 -4 -5 0 -3 8 1 8 -4 14 -12 15
-8 1 -14 6 -12 13 1 7 -5 12 -13 12 -8 0 -15 5 -15 11 0 5 -4 7 -10 4 -6 -4
-7 1 -3 11 5 14 3 16 -12 10 -11 -4 -16 -4 -13 0 9 9 -18 35 -32 32 -7 -2 -17
6 -23 17 -15 25 -29 35 -40 28 -4 -3 -11 4 -14 16 -3 12 -16 24 -29 27 -13 3
-24 10 -24 15 0 5 -4 9 -10 9 -5 0 -32 22 -59 48 l-50 49 -1 79 c-2 124 -3
120 33 135 17 8 38 12 45 11 6 -2 12 2 12 7 0 5 16 15 35 22 19 7 35 17 35 21
0 4 5 8 11 8 15 0 95 56 159 111 74 64 169 213 192 299 18 69 25 306 9 296 -5
-3 -11 11 -14 32 -22 133 -68 240 -116 270 -15 9 -48 36 -74 60 -27 24 -51 42
-54 39 -3 -3 -16 7 -30 24 -14 16 -29 29 -35 29 -6 0 -32 11 -60 25 -27 14
-54 25 -59 25 -5 0 -18 8 -29 18 -11 9 -28 18 -38 19 -25 2 -61 11 -70 17 -19
12 -355 22 -372 11 -4 -3 -131 1 -281 7 -257 11 -276 10 -312 -7 -38 -18 -38
-17 -59 4 -11 12 -27 20 -35 17 -8 -3 -11 -2 -8 4 8 13 -37 8 -60 -7 -24 -16
-55 -17 -55 -2 0 6 -7 9 -15 6 -8 -4 -17 -1 -21 5 -5 7 -2 8 6 3 8 -5 11 -3 8
5 -6 19 -21 21 -35 5z"/>
<path d="M4641 5445 c-1 -6 -47 -10 -118 -10 -160 0 -281 -18 -290 -42 -3 -9
-8 -11 -12 -5 -4 7 -19 4 -41 -5 -19 -9 -39 -15 -43 -14 -14 3 -209 -96 -258
-131 -72 -51 -117 -95 -138 -130 -10 -18 -23 -32 -29 -31 -15 3 -126 -145
-171 -229 -47 -87 -96 -208 -121 -298 -17 -59 -37 -189 -31 -199 2 -2 -2 -7
-8 -10 -17 -11 -18 -295 -1 -306 6 -4 10 -1 10 6 0 24 14 -3 27 -49 6 -26 10
-54 7 -63 -3 -10 3 -19 12 -23 11 -4 14 -14 11 -29 -3 -13 6 -41 24 -72 37
-66 62 -117 65 -133 3 -19 50 -88 96 -143 21 -26 38 -50 38 -54 0 -13 106
-124 151 -158 80 -61 193 -123 279 -155 97 -36 237 -73 289 -77 20 -1 64 -6
98 -10 34 -4 70 -4 80 0 10 3 47 8 83 11 74 4 157 13 191 19 13 3 40 8 59 11
40 6 169 49 219 72 18 8 44 26 57 39 13 13 29 20 38 17 10 -4 16 -1 16 8 0 8
16 20 35 28 19 8 35 17 35 21 0 4 16 15 35 26 37 19 145 119 145 134 0 4 29
41 65 81 36 39 65 78 65 85 0 8 11 26 25 41 14 15 25 32 25 39 0 7 5 13 10 13
6 0 10 5 10 11 0 7 13 33 29 59 25 41 58 150 53 173 -1 4 5 21 13 37 8 16 12
35 9 43 -7 18 40 27 141 27 39 0 118 1 176 1 96 1 109 -1 128 -20 12 -12 21
-24 21 -27 0 -4 15 -20 34 -38 18 -17 43 -47 55 -66 11 -19 21 -31 21 -27 0 5
15 -8 34 -27 18 -20 37 -36 41 -36 11 0 75 -72 75 -84 0 -6 19 -22 41 -36 23
-14 37 -30 34 -38 -3 -8 0 -10 7 -6 8 5 9 -22 5 -103 -10 -167 -14 -353 -8
-353 3 0 5 -47 3 -105 -3 -86 -1 -105 11 -105 17 0 27 -42 27 -110 0 -34 4
-50 16 -54 10 -4 13 -13 9 -26 -3 -11 -2 -20 2 -20 11 0 53 55 53 70 0 5 5 10
10 10 6 0 10 18 10 40 0 22 4 40 10 40 5 0 9 -3 9 -7 -1 -5 -1 -17 0 -28 2
-19 3 -19 21 4 15 18 20 19 20 7 0 -9 -5 -16 -11 -16 -8 0 -10 -21 -6 -69 10
-106 27 -136 73 -125 l26 7 -6 106 c-3 58 -2 122 3 141 5 21 10 27 10 15 2
-20 2 -20 16 -1 8 11 15 14 15 7 0 -7 5 -9 10 -6 6 3 10 0 10 -7 0 -7 10 0 23
16 16 20 22 42 23 79 1 29 4 67 7 85 3 18 1 32 -4 32 -6 0 -7 5 -3 11 6 11 17
314 15 414 0 26 2 35 8 26 6 -9 11 -10 15 -2 4 6 4 17 -1 24 -4 6 -9 21 -10
32 -1 11 -6 45 -10 77 l-8 56 -213 206 c-117 113 -218 206 -225 206 -6 1 -30
19 -52 40 -22 22 -43 40 -47 40 -5 0 -8 6 -8 13 0 7 -9 18 -20 25 -11 7 -20
18 -20 25 0 7 -19 24 -42 38 -42 23 -49 24 -293 26 -137 2 -260 5 -272 8 -19
4 -22 12 -21 54 0 28 -4 56 -8 63 -11 17 -13 28 -23 110 -6 49 -16 76 -37 104
-16 20 -27 39 -24 40 3 2 -3 13 -13 24 -10 12 -23 18 -29 14 -6 -4 -8 -3 -4 4
7 12 -21 77 -44 103 -8 9 -22 25 -30 35 -62 80 -114 133 -142 145 -18 7 -64
34 -103 60 -151 102 -360 191 -478 204 -26 2 -55 9 -65 13 -9 5 -34 8 -54 8
-21 -1 -38 2 -38 7 0 5 -6 4 -14 -2 -11 -9 -15 -9 -19 1 -3 7 -6 9 -6 3z m79
-406 c19 -4 52 -10 73 -13 21 -4 37 -13 37 -20 0 -16 48 -27 57 -13 3 5 14 -1
24 -14 16 -20 20 -22 29 -9 8 13 10 13 10 -1 0 -9 11 -20 25 -23 16 -4 22 -11
19 -21 -4 -8 -1 -15 5 -15 6 0 11 5 11 10 0 20 18 9 81 -52 35 -34 67 -61 71
-60 4 1 5 -5 2 -13 -4 -8 -2 -15 4 -15 5 0 13 -12 16 -26 5 -18 12 -24 22 -20
15 6 64 -34 64 -52 0 -5 9 -19 20 -32 11 -13 20 -28 20 -35 0 -7 9 -22 19 -34
19 -21 31 -77 33 -153 1 -21 7 -39 15 -42 7 -3 13 -19 13 -36 0 -18 -4 -29
-10 -25 -5 3 -10 -3 -10 -15 0 -12 5 -18 10 -15 11 7 14 -8 3 -18 -3 -4 -7
-28 -9 -54 -1 -27 -3 -48 -4 -48 -1 0 -3 -15 -6 -33 -3 -23 0 -31 7 -26 16 9
9 -25 -31 -154 -22 -75 -43 -121 -75 -165 -25 -34 -52 -72 -60 -85 -9 -12 -42
-41 -73 -64 -31 -23 -64 -49 -72 -57 -8 -8 -35 -23 -60 -34 -25 -11 -57 -28
-72 -38 -15 -12 -33 -16 -44 -12 -13 5 -15 3 -9 -8 6 -11 5 -11 -5 -2 -10 9
-25 7 -68 -9 -31 -12 -65 -22 -76 -23 -12 -1 -24 -3 -29 -4 -4 0 -5 -12 -1
-26 3 -14 2 -25 -4 -25 -11 0 -34 25 -28 31 2 2 -39 5 -92 7 -53 1 -101 7
-107 12 -7 6 -14 8 -16 5 -6 -5 -140 27 -183 44 -17 7 -36 21 -43 31 -8 11
-21 20 -29 20 -8 0 -14 5 -14 10 0 6 -7 10 -16 10 -9 0 -12 5 -8 12 5 8 2 9
-10 5 -10 -4 -15 -3 -11 3 3 5 -31 34 -77 63 -46 30 -94 66 -108 81 -14 16
-33 35 -42 44 -10 9 -18 22 -18 29 0 7 -4 13 -8 13 -5 0 -15 19 -22 41 -8 23
-21 48 -28 56 -8 8 -15 32 -15 53 0 22 -3 37 -7 35 -4 -3 -10 8 -13 23 -3 15
-1 29 4 30 13 5 11 30 -2 34 -23 8 -23 184 1 318 30 179 104 324 214 420 23
19 55 49 73 67 18 17 33 29 33 25 0 -3 9 3 19 12 11 10 25 15 30 11 6 -3 11
-2 11 4 0 22 157 74 255 84 59 6 251 4 285 -4z"/>
<path d="M12611 5444 c-1 -7 -7 -11 -13 -11 -7 1 -45 -2 -85 -7 -132 -15 -303
-18 -1093 -20 -550 -2 -787 1 -792 8 -6 8 -11 7 -17 -3 -7 -10 -10 -10 -13 -1
-7 21 -198 15 -198 -6 0 -7 -5 -14 -11 -16 -14 -5 -21 -78 -8 -78 5 0 9 -4 9
-10 0 -5 -6 -10 -14 -10 -18 0 -30 -31 -16 -40 6 -4 8 -14 4 -23 -4 -12 -1
-17 10 -17 9 0 16 -4 16 -10 0 -5 -3 -10 -7 -10 -5 0 -9 -30 -11 -68 -2 -66
-2 -67 28 -81 17 -7 40 -11 50 -8 10 3 20 2 22 -2 5 -13 182 -40 195 -30 6 6
14 6 17 1 8 -13 176 -14 176 -1 0 8 4 9 13 0 8 -6 16 -8 19 -6 3 3 43 7 88 10
106 5 162 14 154 26 -3 5 6 5 21 -1 18 -7 31 -6 45 2 14 9 25 9 44 0 17 -7 35
-8 58 -1 40 12 211 10 219 -3 3 -5 16 -5 31 1 18 7 29 6 37 -2 7 -7 11 -8 11
0 0 12 89 6 103 -7 11 -10 47 -1 47 11 0 5 23 9 50 9 28 0 50 -3 50 -8 0 -4
-80 -89 -178 -189 -98 -100 -214 -219 -257 -265 l-80 -83 -60 0 c-33 0 -62 3
-65 6 -3 4 -28 9 -56 12 -43 4 -55 1 -69 -15 -13 -16 -25 -19 -50 -15 -25 4
-41 0 -58 -13 -23 -19 -24 -23 -20 -122 7 -184 6 -237 -5 -251 -7 -8 -9 -16
-6 -20 3 -3 -4 -8 -15 -12 -12 -3 -21 -11 -21 -16 0 -6 5 -7 11 -3 7 4 10 1 7
-7 -3 -8 -10 -15 -16 -15 -7 -1 -16 -2 -21 -3 -6 0 -42 -31 -80 -68 -57 -54
-71 -74 -71 -97 0 -16 -3 -27 -6 -23 -9 8 -25 -11 -48 -56 -14 -26 -24 -36
-35 -32 -8 3 -12 3 -8 -1 10 -10 -33 -65 -45 -58 -7 4 -8 2 -4 -4 4 -7 -9 -23
-31 -39 -51 -37 -180 -180 -246 -274 -30 -41 -74 -95 -99 -120 -27 -26 -48
-58 -53 -77 -4 -18 -13 -36 -22 -39 -8 -3 -12 -12 -9 -19 3 -8 1 -14 -4 -14
-17 0 -11 -49 8 -59 9 -6 11 -11 5 -11 -26 0 -12 -20 15 -20 26 0 67 -18 47
-21 -5 -1 4 -5 20 -8 17 -4 36 -3 43 2 9 7 17 6 24 -1 20 -20 39 -14 74 25 19
20 34 31 34 24 0 -7 4 -10 9 -6 5 3 12 1 16 -5 3 -5 11 -10 16 -10 6 0 8 4 4
9 -3 6 3 15 14 20 24 13 42 14 21 1 -17 -10 -14 -15 18 -24 16 -6 22 -3 22 9
0 9 -4 13 -10 10 -5 -3 -10 -1 -10 5 0 14 342 10 353 -5 4 -6 11 -4 18 5 8 11
12 12 16 3 2 -7 14 -13 24 -13 11 0 18 4 15 9 -3 4 52 7 122 5 160 -5 248 -6
337 -4 39 0 107 -1 153 -4 45 -3 82 -2 82 2 0 10 42 8 58 -2 7 -4 19 -2 27 4
9 7 28 10 47 6 35 -6 54 -5 51 5 -1 3 22 2 50 -2 29 -3 55 -5 60 -2 4 2 12 1
19 -3 26 -16 386 -24 538 -11 79 6 124 22 117 41 -4 10 0 12 14 9 10 -3 19 0
19 6 0 6 -5 11 -11 11 -8 0 -9 11 -5 31 6 31 6 31 -32 25 -26 -4 -31 -3 -17 4
11 5 31 9 44 9 23 1 23 2 7 20 -10 11 -27 22 -39 25 -20 5 -22 11 -19 51 3 36
1 45 -12 45 -8 0 -13 6 -11 13 6 18 -16 41 -50 54 -82 29 -111 35 -188 38 -45
1 -111 8 -147 15 -39 7 -142 11 -255 10 -104 -1 -305 -1 -445 0 -140 1 -272
-1 -292 -5 -23 -3 -38 -1 -38 5 0 5 -9 10 -21 10 -11 0 -30 5 -41 11 -14 8
-23 8 -31 0 -6 -6 -15 -11 -21 -11 -5 0 9 18 32 40 22 22 45 40 51 40 6 0 11
9 11 21 0 11 -4 18 -9 15 -5 -4 -12 0 -14 6 -4 10 -8 9 -16 -2 -6 -8 -11 -11
-11 -6 0 14 205 226 220 226 5 0 10 5 10 11 0 12 70 78 83 79 4 0 7 5 7 11 0
6 8 23 19 37 14 20 18 43 17 90 0 34 3 62 7 62 4 0 7 19 7 43 -1 23 -1 96 -1
161 l1 120 20 -22 c20 -22 36 -30 26 -14 -3 5 1 9 9 9 8 0 11 -5 8 -10 -4 -6
0 -8 10 -4 10 3 17 3 17 -2 0 -10 159 -13 175 -3 16 10 35 11 35 2 0 -4 14
-10 30 -12 17 -3 30 -1 30 4 0 5 9 7 19 3 12 -3 25 0 33 10 7 9 21 24 31 33 9
9 17 22 17 28 0 6 47 60 105 119 57 60 105 117 107 127 2 10 7 18 11 17 13 -2
66 51 92 91 25 39 130 150 142 150 13 1 53 38 53 49 0 15 165 181 180 181 6 0
8 5 5 10 -3 6 1 10 9 10 10 0 16 9 16 23 0 16 3 18 9 9 12 -20 42 -11 79 26
25 24 39 31 55 27 12 -4 18 -3 12 2 -13 10 -14 52 -2 50 12 -3 28 53 19 67 -3
6 -7 17 -8 24 -4 21 -11 25 -46 25 -18 0 -36 5 -40 11 -5 8 -13 8 -27 -1 -15
-10 -21 -10 -24 0 -4 8 -6 8 -6 1z"/>
<path d="M14175 5429 c-200 -15 -283 -35 -378 -89 -38 -22 -70 -40 -72 -40 -2
0 -24 -13 -48 -30 -25 -16 -47 -30 -50 -30 -12 0 -144 -123 -187 -175 -28 -34
-66 -86 -142 -190 -76 -106 -149 -273 -163 -373 -4 -29 -12 -55 -18 -59 -13
-8 -404 -6 -417 2 -5 3 -19 1 -30 -5 -16 -8 -25 -8 -35 0 -10 8 -15 8 -20 -1
-6 -8 -9 -8 -14 0 -4 6 -32 11 -62 11 -78 -1 -169 1 -204 4 -16 1 -36 -2 -42
-7 -9 -7 -13 -5 -13 7 0 19 -1 19 -37 5 -42 -17 -113 -27 -119 -17 -3 5 -12 4
-19 -2 -14 -11 -9 -50 6 -50 5 0 9 -5 9 -11 0 -6 -8 -8 -19 -4 -11 3 -29 0
-40 -7 -22 -13 -29 -54 -10 -60 5 -2 13 -22 16 -46 6 -42 16 -54 27 -29 3 6 3
0 0 -15 -4 -17 -2 -28 5 -28 6 0 11 -5 11 -11 0 -7 8 -18 18 -26 13 -10 13
-13 2 -11 -17 3 -25 -39 -11 -61 12 -19 60 -23 354 -26 191 -3 257 0 257 8 0
8 3 8 8 -1 9 -13 90 -11 126 3 11 5 21 3 27 -6 5 -8 9 -9 9 -3 0 7 28 10 82 9
46 -2 93 1 105 6 24 9 23 10 37 -92 2 -20 14 -58 26 -84 12 -26 19 -50 16 -53
-3 -3 1 -14 11 -24 9 -10 14 -21 10 -24 -7 -7 43 -125 59 -139 6 -5 26 -37 44
-70 18 -33 39 -67 46 -76 8 -8 14 -19 14 -23 0 -4 21 -27 48 -52 26 -25 47
-48 47 -53 0 -10 80 -91 90 -91 4 0 16 -11 27 -25 11 -14 27 -25 36 -25 10 0
23 -9 30 -20 7 -11 20 -20 31 -20 10 0 26 -9 36 -20 10 -11 26 -20 37 -20 10
0 27 -9 39 -21 15 -15 30 -20 50 -17 21 3 28 1 25 -8 -3 -7 6 -15 22 -19 14
-3 45 -15 68 -26 23 -10 68 -22 101 -25 32 -4 63 -10 68 -14 6 -4 24 -6 40 -5
17 1 35 -1 40 -4 19 -11 117 -11 130 -1 7 6 33 10 57 9 56 -2 210 26 312 58
45 13 100 30 124 36 23 6 42 15 42 20 0 4 5 5 10 2 6 -3 13 1 16 9 3 9 15 16
25 16 10 0 19 7 19 15 0 8 9 15 20 15 22 0 36 9 75 48 12 12 30 22 39 22 9 0
16 7 16 15 0 8 6 15 14 15 7 0 29 15 49 33 19 17 44 39 54 47 19 16 48 69 44
83 -1 5 2 6 7 3 13 -8 60 37 54 52 -2 7 2 21 10 30 8 9 20 30 26 45 7 17 17
25 24 21 8 -5 9 -2 5 9 -4 10 -2 16 5 14 6 -1 26 29 45 67 30 59 33 73 24 94
-10 21 -9 23 4 19 10 -5 15 0 15 13 0 13 -5 18 -15 14 -27 -11 -16 5 14 21 22
11 30 22 29 42 0 16 5 48 12 73 22 86 31 156 31 258 0 56 -2 106 -6 111 -3 5
-8 36 -11 68 -4 32 -14 83 -24 113 -10 30 -21 68 -25 85 -8 37 -99 220 -129
260 -13 17 -30 44 -39 62 -19 35 -182 204 -236 243 -19 14 -47 36 -63 48 -71
59 -399 195 -428 177 -5 -3 -10 -2 -10 4 0 19 -230 31 -375 20z m35 -418 c0 7
7 8 18 4 21 -9 72 -10 107 -1 14 4 25 3 25 -2 0 -4 23 -14 51 -21 46 -12 51
-12 64 5 8 11 15 14 15 7 0 -7 17 -17 38 -22 20 -6 68 -26 106 -46 38 -19 84
-38 103 -41 20 -4 41 -17 53 -34 11 -15 40 -37 64 -49 24 -11 47 -30 51 -41 3
-11 13 -20 21 -20 8 0 14 -9 14 -20 0 -10 8 -27 18 -37 41 -40 114 -210 143
-333 27 -110 -13 -385 -72 -502 -12 -24 -27 -53 -33 -65 -6 -12 -21 -28 -33
-34 -13 -7 -23 -18 -23 -24 0 -6 -25 -35 -55 -64 -30 -29 -55 -59 -55 -67 0
-7 -11 -16 -25 -20 -14 -3 -25 -10 -25 -16 0 -5 -13 -14 -30 -19 -16 -6 -30
-15 -30 -20 0 -5 -9 -9 -20 -9 -30 0 -120 -48 -120 -64 0 -8 -11 -13 -25 -13
-14 0 -38 -6 -55 -13 -19 -8 -34 -9 -43 -3 -13 10 -35 10 -140 -1 -40 -5 -73
-3 -92 5 -17 6 -46 11 -65 11 -26 -1 -30 1 -16 7 15 6 17 9 6 16 -8 5 -17 3
-24 -6 -12 -16 -40 -18 -53 -5 -4 5 -3 6 4 2 6 -3 14 -2 18 3 8 13 -24 29 -74
37 -23 4 -48 12 -54 18 -7 6 -38 24 -69 41 -32 16 -58 33 -58 37 0 4 -6 8 -14
8 -21 0 -192 171 -201 200 -4 14 -13 32 -20 40 -12 13 -23 60 -42 165 -2 17
-9 31 -14 33 -5 2 -4 12 1 23 6 10 7 19 2 19 -10 0 -11 7 -18 202 l-6 166 34
74 c19 40 41 89 48 108 8 19 36 59 64 88 28 29 55 61 59 71 5 9 39 34 75 54
37 20 89 52 117 71 27 20 56 36 62 36 7 0 13 4 13 10 0 5 12 13 28 16 15 4 32
11 38 16 19 14 97 25 122 17 14 -6 22 -5 22 2z"/>
<path d="M16643 3974 c-13 -14 -23 -32 -23 -40 0 -8 -4 -14 -10 -14 -5 0 -7 7
-4 15 4 9 0 15 -7 15 -11 0 -11 3 1 11 12 9 12 10 1 7 -23 -7 -33 -56 -12 -62
9 -2 -8 -2 -38 0 -47 4 -53 3 -47 -12 5 -14 4 -15 -9 -4 -12 10 -19 10 -28 1
-9 -9 -9 -14 0 -19 8 -5 9 -13 3 -22 -8 -12 -10 -12 -10 -1 0 10 -3 11 -14 2
-10 -8 -12 -29 -9 -79 8 -124 8 -262 0 -265 -5 -1 -3 -15 4 -30 9 -19 9 -31 3
-35 -6 -4 -10 -20 -9 -37 1 -16 -2 -36 -8 -42 -6 -9 -5 -13 4 -13 11 0 11 -2
-1 -10 -13 -9 -13 -11 0 -20 10 -6 11 -10 3 -10 -7 0 -13 -11 -13 -25 0 -14 6
-25 13 -25 9 0 9 -2 0 -8 -16 -10 -29 -192 -13 -192 6 0 8 -5 3 -12 -9 -14
-11 -168 -3 -168 7 0 4 -90 -5 -130 -5 -25 -4 -31 5 -25 8 5 11 4 7 -2 -3 -5
-9 -106 -13 -224 -10 -287 -10 -290 -2 -478 5 -134 10 -166 22 -173 12 -7 14
-14 6 -28 -14 -27 -12 -56 5 -74 9 -8 15 -19 15 -23 -2 -15 52 -74 63 -70 6 2
21 -10 32 -27 19 -28 26 -31 73 -32 31 -1 52 3 52 10 0 6 7 0 16 -12 14 -21
54 -31 54 -14 0 5 14 7 30 4 20 -3 30 0 30 8 0 10 3 10 15 0 21 -18 61 11 70
50 4 16 11 28 16 24 5 -3 10 1 11 8 2 21 5 32 11 48 15 40 17 70 5 70 -10 0
-13 42 -15 178 -3 356 -6 437 -17 444 -7 5 -7 8 2 8 9 0 11 12 6 48 -3 26 -7
136 -8 245 -1 164 -4 199 -16 207 -11 7 -11 10 -2 10 9 0 11 12 8 40 -3 22 -2
40 3 40 4 0 6 24 4 53 -6 114 -1 502 7 507 12 7 22 87 15 110 -4 11 -14 20
-23 21 -13 0 -11 3 6 11 13 7 21 17 17 26 -3 7 -5 30 -5 51 0 31 -4 39 -27 48
-19 8 -22 11 -8 10 26 -3 27 26 1 31 -10 2 -22 -2 -27 -10 -7 -10 -9 -9 -9 5
0 9 -4 17 -8 17 -5 0 -19 9 -32 20 -25 21 -26 22 -111 24 -46 1 -56 -2 -52
-14 4 -13 3 -13 -5 -1 -13 19 -5 39 19 46 10 4 19 13 19 21 0 21 -12 17 -37
-12z"/>
<path d="M9240 1910 l0 -290 65 0 65 0 0 290 0 290 -65 0 -65 0 0 -290z"/>
<path d="M9570 1910 l0 -290 65 0 65 0 0 290 0 290 -65 0 -65 0 0 -290z"/>
<path d="M5341 2082 c-100 -1 -180 -7 -187 -13 -7 -5 -14 -6 -17 -2 -3 4 -318
8 -701 8 -528 0 -698 -3 -707 -12 -9 -9 -17 -9 -32 -2 -25 14 -122 -15 -151
-45 -12 -12 -33 -27 -48 -34 -27 -11 -39 -32 -19 -32 13 0 0 -44 -16 -53 -15
-9 -18 -37 -3 -37 5 0 7 -6 5 -12 -9 -24 20 -60 60 -75 44 -16 177 -18 745 -7
439 8 617 8 695 -1 77 -9 575 -13 575 -5 0 3 16 6 35 7 19 1 35 -2 35 -6 0 -4
33 -3 73 1 100 12 536 15 540 4 3 -10 355 -10 537 0 63 3 131 2 150 -3 19 -5
51 -6 70 -2 21 5 37 3 41 -3 4 -6 12 -7 19 -3 6 4 29 7 51 7 21 -1 39 2 39 6
0 4 75 6 167 6 110 -1 170 2 175 9 4 7 11 7 20 1 8 -7 125 -10 318 -8 193 1
310 -2 318 -8 8 -7 12 -6 12 3 0 9 3 10 8 3 9 -14 62 -27 62 -16 0 5 11 7 25
4 15 -2 25 0 25 7 0 6 5 11 10 11 6 0 10 -6 10 -14 0 -10 13 -12 53 -8 28 3
54 8 57 11 8 11 94 8 102 -4 5 -6 8 -4 8 5 0 10 3 11 8 4 9 -14 62 -27 62 -16
0 5 11 7 25 4 15 -2 25 0 25 7 0 6 5 11 10 11 6 0 10 -6 10 -14 0 -11 10 -13
43 -9 23 2 49 7 57 10 8 4 23 5 33 4 15 -2 22 9 18 32 0 4 3 7 8 7 4 0 20 12
35 26 19 19 24 33 20 50 -3 13 -2 24 4 24 5 0 9 15 8 33 -2 26 -6 32 -24 31
-17 0 -20 4 -17 20 3 12 -2 30 -10 40 -11 15 -17 17 -29 7 -11 -10 -15 -9 -18
5 -3 15 -28 17 -253 21 -323 5 -1396 11 -1820 11 -572 -2 -1068 0 -1125 4 -30
1 -133 2 -229 0z"/>
<path d="M10430 2059 c-36 -5 -114 -7 -173 -4 -59 2 -121 2 -138 -2 -31 -6
-41 -33 -12 -33 23 0 12 -9 -18 -14 -36 -7 -36 -7 -14 -16 17 -7 17 -9 3 -9
-10 -1 -18 -6 -18 -11 0 -6 3 -9 8 -9 4 1 16 1 26 0 18 -1 18 -3 -4 -27 -21
-21 -22 -27 -10 -34 8 -5 22 -10 30 -10 12 -1 12 -3 -2 -14 -10 -7 -18 -16
-18 -20 0 -3 8 -6 18 -7 14 0 14 -2 -3 -9 -18 -7 -18 -9 10 -21 17 -7 35 -13
40 -14 6 0 15 -4 22 -8 35 -22 238 -27 1123 -29 525 -1 1029 -2 1120 -2 91 -1
325 5 520 11 468 17 654 18 956 8 192 -6 256 -5 273 5 13 7 26 8 30 4 7 -11
732 -11 749 0 6 4 12 3 12 -3 0 -10 58 -10 75 1 6 3 66 7 134 7 69 1 128 4
131 6 3 2 28 5 56 6 27 1 54 6 61 11 7 6 17 7 23 3 6 -4 11 -1 9 6 -3 28 1 50
10 45 4 -3 16 3 26 14 16 18 16 20 -1 49 -10 16 -26 32 -36 34 -14 4 -17 11
-13 29 7 26 -16 55 -35 43 -5 -3 -10 -2 -10 2 0 5 -11 10 -25 11 -14 1 -25 -2
-25 -6 0 -4 -49 -4 -108 0 -59 3 -560 6 -1112 6 -1743 -1 -2953 0 -3015 0 -33
1 -116 2 -185 3 -69 1 -159 0 -200 -3 -41 -3 -88 -1 -104 3 -17 5 -32 5 -35 1
-9 -10 -71 -12 -71 -1 0 5 -3 8 -7 8 -5 -1 -37 -6 -73 -10z"/>
<path d="M3916 918 c-239 -32 -411 -271 -376 -521 36 -247 270 -428 506 -389
177 29 317 156 366 331 88 317 -174 624 -496 579z m206 -171 c57 -33 114 -97
141 -156 32 -70 30 -188 -4 -262 -110 -237 -428 -245 -546 -15 -37 72 -43 189
-14 267 29 77 83 136 155 171 55 26 69 29 142 25 65 -3 90 -8 126 -30z"/>
<path d="M14745 916 c-153 -38 -247 -151 -231 -280 14 -119 90 -170 316 -211
228 -41 286 -80 260 -175 -21 -78 -72 -100 -232 -100 l-108 0 -104 108 -105
107 -44 -50 -44 -50 115 -122 115 -123 172 0 c202 0 246 11 310 75 57 57 78
116 73 203 -8 151 -89 208 -357 252 -179 30 -221 52 -221 115 0 25 8 40 35 63
85 76 262 69 370 -14 l46 -35 54 33 c30 18 55 36 55 41 0 18 -83 95 -128 120
-96 52 -238 70 -347 43z"/>
<path d="M2760 465 l0 -445 70 0 70 0 0 93 1 92 83 87 84 88 111 0 111 0 0 70
0 70 -138 0 -139 0 -56 -59 -57 -60 0 185 0 184 240 0 240 0 0 70 0 70 -310 0
-310 0 0 -445z"/>
<path d="M4650 465 l0 -445 70 0 70 0 0 375 0 375 186 0 c118 0 193 -4 207
-11 40 -21 67 -52 78 -91 8 -32 6 -46 -10 -82 -24 -54 -61 -76 -131 -76 l-50
0 0 -129 0 -129 111 -116 111 -116 64 0 c63 0 64 0 64 28 0 22 -23 52 -105
139 -98 104 -105 114 -105 152 0 38 3 41 43 59 95 42 152 144 145 260 -4 83
-39 148 -105 198 -61 47 -114 54 -393 54 l-250 0 0 -445z"/>
<path d="M5720 466 l0 -446 288 0 288 0 53 27 c55 27 105 84 128 146 30 83 6
206 -54 269 l-25 27 19 28 c85 121 41 295 -92 366 -38 21 -55 22 -322 25
l-283 3 0 -445z m576 261 c36 -42 34 -109 -5 -148 -29 -29 -31 -29 -140 -29
l-111 0 0 -70 0 -70 110 0 c125 0 160 -11 185 -60 19 -38 19 -109 -1 -138 -33
-47 -59 -52 -274 -52 l-200 0 0 303 0 302 206 -5 206 -5 24 -28z"/>
<path d="M6724 896 c-3 -7 -4 -40 -2 -72 l3 -59 73 -3 72 -3 0 -299 0 -300
-75 0 -75 0 0 -70 0 -70 220 0 220 0 0 70 0 70 -70 0 -70 0 0 300 0 300 70 0
70 0 0 75 0 75 -215 0 c-173 0 -217 -3 -221 -14z"/>
<path d="M7447 903 c-4 -3 -7 -204 -7 -445 l0 -439 228 3 c223 3 228 3 285 30
146 69 233 188 256 351 19 139 -27 277 -126 376 -68 67 -143 106 -233 121 -72
11 -393 14 -403 3z m446 -157 c57 -25 122 -90 148 -149 32 -71 34 -201 3 -268
-30 -64 -77 -114 -136 -143 -48 -24 -62 -26 -185 -26 l-133 0 0 306 0 306 133
-4 c94 -4 143 -10 170 -22z"/>
<path d="M8440 465 l0 -447 223 4 223 3 75 37 c167 83 259 244 246 433 -11
177 -116 323 -277 387 -49 20 -77 22 -272 26 l-218 4 0 -447z m430 289 c72
-21 150 -98 176 -174 41 -119 15 -251 -64 -333 -68 -70 -99 -81 -254 -85
l-137 -4 -3 306 -3 306 116 0 c76 0 133 -5 169 -16z"/>
<path d="M9447 903 c-4 -3 -7 -204 -7 -445 l0 -438 335 0 335 0 0 70 0 70
-260 0 -260 0 0 305 0 305 260 0 260 0 0 70 0 70 -328 0 c-181 0 -332 -3 -335
-7z"/>
<path d="M10410 465 l0 -445 75 0 76 0 -3 315 -3 316 52 -58 52 -58 1 -77 0
-78 68 -1 67 0 155 -180 154 -179 63 0 63 0 0 445 0 446 -72 -3 -73 -3 -5
-315 -5 -314 -49 57 -48 57 -84 0 -84 0 0 98 -1 97 -142 163 -142 162 -57 0
-58 0 0 -445z"/>
<path d="M11990 905 c0 -4 79 -200 175 -436 96 -236 175 -434 175 -439 0 -6
45 -10 113 -10 l112 1 49 125 c27 68 52 121 56 117 4 -5 28 -61 54 -125 l48
-118 107 0 107 0 173 424 c95 233 175 433 178 445 5 20 2 21 -70 21 -50 0 -76
-4 -80 -12 -70 -175 -300 -734 -304 -738 -7 -8 -21 21 -80 168 l-57 143 83
202 c46 111 85 210 88 220 5 16 -1 18 -73 15 l-78 -3 -50 -122 -49 -122 -50
125 -50 124 -74 0 c-55 0 -73 -3 -73 -14 0 -7 38 -106 84 -220 l85 -206 -63
-153 c-34 -83 -66 -151 -71 -151 -6 1 -78 168 -160 370 l-151 369 -77 3 c-42
2 -77 0 -77 -3z"/>
<path d="M13560 465 l0 -445 335 0 336 0 -3 68 -3 67 -262 3 -263 2 0 305 0
305 265 0 266 0 -3 68 -3 67 -332 3 -333 2 0 -445z"/>
<path d="M15464 896 c-3 -7 -4 -38 -2 -67 l3 -54 148 -3 147 -3 0 -374 0 -375
70 0 70 0 0 375 0 375 150 0 150 0 0 70 0 70 -144 0 -144 0 -40 -45 -39 -44
-43 44 -44 45 -138 0 c-108 0 -140 -3 -144 -14z"/>
<path d="M16360 885 c0 -20 5 -25 25 -25 23 0 24 -3 27 -72 3 -65 5 -73 23
-73 18 0 20 8 23 72 3 70 4 72 30 75 19 2 27 9 27 23 0 18 -8 20 -77 23 -78 3
-78 3 -78 -23z"/>
<path d="M16540 810 c0 -93 1 -100 20 -100 17 0 20 7 21 53 l1 52 16 -47 c24
-74 53 -75 74 -5 l13 42 5 -45 c4 -37 9 -45 25 -45 19 0 20 7 20 95 l0 95 -29
0 c-27 0 -31 -5 -49 -60 l-21 -60 -20 63 c-18 57 -22 62 -48 62 l-28 0 0 -100z"/>
<path d="M9747 533 c-4 -3 -7 -37 -7 -75 l0 -68 95 0 95 0 0 75 0 75 -88 0
c-49 0 -92 -3 -95 -7z"/>
<path d="M13860 465 l0 -75 95 0 96 0 -3 73 -3 72 -92 3 -93 3 0 -76z"/>
</g>
</svg>
