<svg width="1235" height="216" fill="none" xmlns="http://www.w3.org/2000/svg"><path fill-rule="evenodd" clip-rule="evenodd" d="M86.5 202.2c-9.2 9.2-21.2 13.8-36 13.8s-26.8-4.6-36-13.8C5.3 193 .7 181 .7 166.2V49.8C.7 35 5.3 23 14.5 13.8 23.7 4.6 35.7 0 50.5 0s26.8 4.6 36 13.8c9.2 9.2 13.8 21.2 13.8 36v24.6H69.1V49.8c0-6-1.7-10.8-5.1-14.4-3.4-3.6-7.8-5.4-13.2-5.4-5.4 0-9.8 1.8-13.2 5.4-3.4 3.6-5.1 8.4-5.1 14.4v116.4c0 6 1.7 10.8 5.1 14.4 3.4 3.6 7.8 5.4 13.2 5.4 5.4 0 9.8-1.8 13.2-5.4 3.4-3.6 5.1-8.4 5.1-14.4v-30h31.2v30c0 14.8-4.6 26.8-13.8 36zm74.7-80.7V213h-31.8V3h31.8v88.5H199V3h31.8v210H199v-91.5h-37.8zm126 91.5l6.9-46.5h34.2l6.9 46.5h32.4L332.8 3h-42.6l-34.8 210h31.8zm24-165l-12.9 87.9h25.8L311.2 48zM424 213v-86.7h16.5l23.1 86.7h33l-26.7-93.9c7-4.2 12.4-10 16.2-17.4 3.8-7.4 5.7-15.9 5.7-25.5V53.1c0-15.2-4.5-27.35-13.5-36.45C469.3 7.55 457.2 3 442 3h-49.8v210H424zm0-116.7h16.5c6.2 0 11-1.7 14.4-5.1 3.4-3.4 5.1-8.2 5.1-14.4V52.5c0-6.2-1.7-11-5.1-14.4-3.4-3.4-8.2-5.1-14.4-5.1H424v63.3zM544.3 213l6.9-46.5h34.2l6.9 46.5h32.4L589.9 3h-42.6l-34.8 210h31.8zm11.1-77.1h25.8L568.3 48l-12.9 87.9zM696.1 216c14.8 0 26.8-4.6 36-13.8 9.2-9.2 13.8-21.2 13.8-36v-30h-31.2v30c0 6-1.7 10.8-5.1 14.4-3.4 3.6-7.8 5.4-13.2 5.4-5.4 0-9.8-1.8-13.2-5.4-3.4-3.6-5.1-8.4-5.1-14.4V49.8c0-6 1.7-10.8 5.1-14.4 3.4-3.6 7.8-5.4 13.2-5.4 5.4 0 9.8 1.8 13.2 5.4 3.4 3.6 5.1 8.4 5.1 14.4v24.6h31.2V49.8c0-14.8-4.6-26.8-13.8-36-9.2-9.2-21.2-13.8-36-13.8s-26.8 4.6-36 13.8c-9.2 9.2-13.8 21.2-13.8 36v116.4c0 14.8 4.6 26.8 13.8 36 9.2 9.2 21.2 13.8 36 13.8zM832.6 33v180h-31.8V33H766V3h101.4v30h-34.8zm149.7 180v-30h-58.5v-61.5h46.5v-30h-46.5V33h58.5V3H892v210h90.3zm58.5-86.7V213H1009V3h49.8c15.2 0 27.3 4.55 36.3 13.65 9 9.1 13.5 21.25 13.5 36.45v23.1c0 9.6-1.9 18.1-5.7 25.5-3.8 7.4-9.2 13.2-16.2 17.4l26.7 93.9h-33l-23.1-86.7h-16.5zm16.5-30h-16.5V33h16.5c6.2 0 11 1.7 14.4 5.1 3.4 3.4 5.1 8.2 5.1 14.4v24.3c0 6.2-1.7 11-5.1 14.4-3.4 3.4-8.2 5.1-14.4 5.1zm153 113.1c-7.8 4.4-16.7 6.6-26.7 6.6s-18.9-2.2-26.7-6.6c-7.8-4.4-13.85-10.5-18.15-18.3-4.3-7.8-6.45-16.7-6.45-26.7v-7.5l30.6-3.3v7.8c0 7.6 1.8 13.6 5.4 18 3.6 4.4 8.6 6.6 15 6.6 6.2 0 11.15-1.8 14.85-5.4 3.7-3.6 5.55-8.5 5.55-14.7 0-6.8-1.95-13.3-5.85-19.5-3.9-6.2-11.65-14.8-23.25-25.8-15.6-14.8-26.25-27.1-31.95-36.9-5.7-9.8-8.55-20.5-8.55-32.1 0-15.8 4.3-28.35 12.9-37.65 8.6-9.3 20.4-13.95 35.4-13.95s26.8 4.7 35.4 14.1c8.6 9.4 12.9 22 12.9 37.8v5.4l-30.6 3.3v-6c0-8-1.5-14.1-4.5-18.3-3-4.2-7.3-6.3-12.9-6.3-5.6 0-9.9 1.7-12.9 5.1-3 3.4-4.5 8.4-4.5 15s2 12.95 6 19.05c4 6.1 11.7 14.85 23.1 26.25 15.6 15.6 26.25 28.15 31.95 37.65 5.7 9.5 8.55 19.95 8.55 31.35 0 10-2.15 18.9-6.45 26.7-4.3 7.8-10.35 13.9-18.15 18.3z" fill="url(#paint0_linear)"/><path fill-rule="evenodd" clip-rule="evenodd" d="M86.5 202.2c-9.2 9.2-21.2 13.8-36 13.8s-26.8-4.6-36-13.8C5.3 193 .7 181 .7 166.2V49.8C.7 35 5.3 23 14.5 13.8 23.7 4.6 35.7 0 50.5 0s26.8 4.6 36 13.8c9.2 9.2 13.8 21.2 13.8 36v24.6H69.1V49.8c0-6-1.7-10.8-5.1-14.4-3.4-3.6-7.8-5.4-13.2-5.4-5.4 0-9.8 1.8-13.2 5.4-3.4 3.6-5.1 8.4-5.1 14.4v116.4c0 6 1.7 10.8 5.1 14.4 3.4 3.6 7.8 5.4 13.2 5.4 5.4 0 9.8-1.8 13.2-5.4 3.4-3.6 5.1-8.4 5.1-14.4v-30h31.2v30c0 14.8-4.6 26.8-13.8 36zm74.7-80.7V213h-31.8V3h31.8v88.5H199V3h31.8v210H199v-91.5h-37.8zm126 91.5l6.9-46.5h34.2l6.9 46.5h32.4L332.8 3h-42.6l-34.8 210h31.8zm24-165l-12.9 87.9h25.8L311.2 48zM424 213v-86.7h16.5l23.1 86.7h33l-26.7-93.9c7-4.2 12.4-10 16.2-17.4 3.8-7.4 5.7-15.9 5.7-25.5V53.1c0-15.2-4.5-27.35-13.5-36.45C469.3 7.55 457.2 3 442 3h-49.8v210H424zm0-116.7h16.5c6.2 0 11-1.7 14.4-5.1 3.4-3.4 5.1-8.2 5.1-14.4V52.5c0-6.2-1.7-11-5.1-14.4-3.4-3.4-8.2-5.1-14.4-5.1H424v63.3zM544.3 213l6.9-46.5h34.2l6.9 46.5h32.4L589.9 3h-42.6l-34.8 210h31.8zm11.1-77.1h25.8L568.3 48l-12.9 87.9zM696.1 216c14.8 0 26.8-4.6 36-13.8 9.2-9.2 13.8-21.2 13.8-36v-30h-31.2v30c0 6-1.7 10.8-5.1 14.4-3.4 3.6-7.8 5.4-13.2 5.4-5.4 0-9.8-1.8-13.2-5.4-3.4-3.6-5.1-8.4-5.1-14.4V49.8c0-6 1.7-10.8 5.1-14.4 3.4-3.6 7.8-5.4 13.2-5.4 5.4 0 9.8 1.8 13.2 5.4 3.4 3.6 5.1 8.4 5.1 14.4v24.6h31.2V49.8c0-14.8-4.6-26.8-13.8-36-9.2-9.2-21.2-13.8-36-13.8s-26.8 4.6-36 13.8c-9.2 9.2-13.8 21.2-13.8 36v116.4c0 14.8 4.6 26.8 13.8 36 9.2 9.2 21.2 13.8 36 13.8zM832.6 33v180h-31.8V33H766V3h101.4v30h-34.8zm149.7 180v-30h-58.5v-61.5h46.5v-30h-46.5V33h58.5V3H892v210h90.3zm58.5-86.7V213H1009V3h49.8c15.2 0 27.3 4.55 36.3 13.65 9 9.1 13.5 21.25 13.5 36.45v23.1c0 9.6-1.9 18.1-5.7 25.5-3.8 7.4-9.2 13.2-16.2 17.4l26.7 93.9h-33l-23.1-86.7h-16.5zm16.5-30h-16.5V33h16.5c6.2 0 11 1.7 14.4 5.1 3.4 3.4 5.1 8.2 5.1 14.4v24.3c0 6.2-1.7 11-5.1 14.4-3.4 3.4-8.2 5.1-14.4 5.1zm153 113.1c-7.8 4.4-16.7 6.6-26.7 6.6s-18.9-2.2-26.7-6.6c-7.8-4.4-13.85-10.5-18.15-18.3-4.3-7.8-6.45-16.7-6.45-26.7v-7.5l30.6-3.3v7.8c0 7.6 1.8 13.6 5.4 18 3.6 4.4 8.6 6.6 15 6.6 6.2 0 11.15-1.8 14.85-5.4 3.7-3.6 5.55-8.5 5.55-14.7 0-6.8-1.95-13.3-5.85-19.5-3.9-6.2-11.65-14.8-23.25-25.8-15.6-14.8-26.25-27.1-31.95-36.9-5.7-9.8-8.55-20.5-8.55-32.1 0-15.8 4.3-28.35 12.9-37.65 8.6-9.3 20.4-13.95 35.4-13.95s26.8 4.7 35.4 14.1c8.6 9.4 12.9 22 12.9 37.8v5.4l-30.6 3.3v-6c0-8-1.5-14.1-4.5-18.3-3-4.2-7.3-6.3-12.9-6.3-5.6 0-9.9 1.7-12.9 5.1-3 3.4-4.5 8.4-4.5 15s2 12.95 6 19.05c4 6.1 11.7 14.85 23.1 26.25 15.6 15.6 26.25 28.15 31.95 37.65 5.7 9.5 8.55 19.95 8.55 31.35 0 10-2.15 18.9-6.45 26.7-4.3 7.8-10.35 13.9-18.15 18.3z" fill="#000" fill-opacity=".666"/><defs><linearGradient id="paint0_linear" x1=".7" y1="0" x2=".7" y2="216" gradientUnits="userSpaceOnUse"><stop stop-color="#2D2D2D"/><stop offset="1" stop-color="#A3A3A3"/></linearGradient></defs></svg>